<svg width="576" height="474" viewBox="0 0 576 474" fill="none" xmlns="http://www.w3.org/2000/svg">
<g clip-path="url(#clip0_636_1156)">
<path d="M306.274 110.257H107.023C102.221 110.252 97.6168 108.342 94.221 104.946C90.8252 101.55 88.9151 96.946 88.9097 92.1436V18.1137C88.9151 13.3113 90.8253 8.7072 94.2211 5.31141C97.6169 1.91562 102.221 0.0054612 107.023 0H306.274C311.076 0.00545912 315.68 1.91562 319.076 5.31141C322.472 8.7072 324.382 13.3113 324.388 18.1137V92.1436C324.382 96.946 322.472 101.55 319.076 104.946C315.681 108.342 311.076 110.252 306.274 110.257Z" fill="#FAFAFA"/>
<path d="M306.274 110.257H107.023C102.221 110.252 97.6168 108.342 94.221 104.946C90.8252 101.55 88.9151 96.946 88.9097 92.1436V18.1137C88.9151 13.3113 90.8253 8.7072 94.2211 5.31141C97.6169 1.91562 102.221 0.0054612 107.023 0H306.274C311.076 0.00545912 315.68 1.91562 319.076 5.31141C322.472 8.7072 324.382 13.3113 324.388 18.1137V92.1436C324.382 96.946 322.472 101.55 319.076 104.946C315.681 108.342 311.076 110.252 306.274 110.257ZM107.023 1.5751C102.639 1.58002 98.4348 3.32405 95.3342 6.42458C92.2337 9.5251 90.4897 13.7289 90.4848 18.1137V92.1436C90.4898 96.5283 92.2338 100.732 95.3343 103.833C98.4348 106.933 102.639 108.677 107.023 108.682H306.274C310.659 108.677 314.863 106.933 317.963 103.833C321.064 100.732 322.808 96.5283 322.813 92.1436V18.1137C322.808 13.7289 321.064 9.5251 317.963 6.42458C314.863 3.32405 310.659 1.58002 306.274 1.5751H107.023Z" fill="#334155"/>
<path d="M381.669 120.332H275.689C275.02 120.325 274.354 120.24 273.704 120.081C271.765 119.615 270.04 118.509 268.808 116.941C267.576 115.373 266.909 113.435 266.915 111.441V75.418C266.919 73.0617 267.857 70.8031 269.524 69.1377C271.191 67.4723 273.45 66.5361 275.807 66.5346H381.669C383.096 66.5308 384.503 66.8751 385.767 67.5375C386.27 67.7985 386.746 68.109 387.187 68.4646C388.242 69.2902 389.094 70.3458 389.679 71.5509C390.264 72.7559 390.565 74.0786 390.561 75.418V111.441C390.558 113.798 389.621 116.058 387.954 117.725C386.287 119.392 384.027 120.33 381.669 120.332Z" fill="#FAFAFA"/>
<path d="M374.565 119.545C379.377 107.85 384.447 96.2699 389.773 84.8058V104.243C386.141 109.768 381.939 114.897 377.235 119.545H374.565Z" fill="#D4D4D8"/>
<path d="M386.694 69.0784C377.172 86.1604 367.21 102.982 356.806 119.545H354.995C365.571 102.723 375.707 85.6196 385.402 68.2357C385.86 68.4729 386.292 68.7552 386.694 69.0784Z" fill="#D4D4D8"/>
<path d="M316.822 87.7276C310.6 98.7288 303.734 109.353 296.259 119.545H285.462C292.534 110.929 299.612 102.313 306.694 93.6973C308.726 91.2165 310.931 88.6176 313.979 87.6095L316.822 87.7276Z" fill="#D4D4D8"/>
<path d="M302.473 85.9635C301.347 87.137 300.268 88.3577 299.252 89.6256C297.015 92.319 294.81 95.0361 292.597 97.7453C291.219 99.4306 289.841 101.116 288.478 102.801C288.045 102.523 287.635 102.213 287.249 101.872C285.073 99.9832 283.724 97.3172 283.49 94.4452C283.255 91.5733 284.156 88.7239 285.997 86.5075C287.838 84.2912 290.475 82.8843 293.341 82.5883C296.207 82.2923 299.075 83.1307 301.331 84.9239C301.737 85.241 302.119 85.5885 302.473 85.9635V85.9635Z" fill="#F97316"/>
<path d="M363.374 93.6185L342.677 86.0501L332.4 82.2935C329.053 81.0728 325.714 79.6788 322.256 78.7967C319.25 77.9375 316.057 77.9785 313.073 78.9149C310.413 79.8995 307.978 81.4101 305.914 83.3567C305.001 84.1993 304.116 85.0683 303.26 85.9635C302.134 87.1369 301.055 88.3576 300.039 89.6256C297.803 92.319 295.598 95.0361 293.384 97.7452C292.006 99.4306 290.628 101.116 289.266 102.801C284.714 108.369 280.188 113.95 275.688 119.545C275.083 119.538 274.48 119.461 273.893 119.316C278.586 113.488 283.301 107.674 288.037 101.872C288.58 101.195 289.14 100.51 289.691 99.8322C291.998 97.0049 294.309 94.1802 296.621 91.3582C298.409 89.1767 300.181 86.9794 302.118 84.9239C302.292 84.7349 302.465 84.5538 302.646 84.3647C306.576 80.301 311.482 76.7097 317.358 76.6152C320.815 76.5601 324.154 77.6548 327.367 78.8125C330.825 80.0647 334.274 81.3405 337.732 82.6085L358.57 90.232L363.784 92.1379C364.705 92.4687 364.311 93.965 363.374 93.6185Z" fill="#D4D4D8"/>
<path d="M381.669 120.332H275.689C275.02 120.325 274.354 120.24 273.704 120.081C271.765 119.615 270.04 118.509 268.808 116.941C267.576 115.373 266.909 113.435 266.915 111.441V75.418C266.919 73.0617 267.857 70.8031 269.524 69.1377C271.191 67.4723 273.45 66.5361 275.807 66.5346H381.669C383.096 66.5308 384.503 66.8751 385.767 67.5375C386.27 67.7985 386.746 68.109 387.187 68.4646C388.242 69.2902 389.094 70.3458 389.679 71.5509C390.264 72.7559 390.565 74.0786 390.561 75.418V111.441C390.558 113.798 389.621 116.058 387.954 117.725C386.287 119.392 384.027 120.33 381.669 120.332ZM275.807 68.1097C273.868 68.1108 272.009 68.8809 270.637 70.251C269.266 71.6211 268.494 73.4793 268.49 75.418V111.441C268.485 113.082 269.034 114.677 270.048 115.967C271.062 117.257 272.482 118.168 274.078 118.551C274.608 118.681 275.152 118.75 275.698 118.757H381.669C383.609 118.755 385.469 117.983 386.84 116.612C388.212 115.24 388.983 113.381 388.986 111.441V75.418C388.989 74.3158 388.74 73.2275 388.259 72.236C387.777 71.2446 387.076 70.3763 386.207 69.6975C385.845 69.4051 385.454 69.1498 385.041 68.9353C384.001 68.39 382.844 68.1066 381.669 68.1097H275.807Z" fill="#334155"/>
<path d="M170.899 154.745H18.1137C13.3113 154.739 8.70714 152.829 5.31134 149.433C1.91553 146.037 0.00539464 141.433 0 136.631V109.854C0.00545912 105.052 1.91562 100.448 5.31141 97.0519C8.7072 93.6561 13.3113 91.7459 18.1137 91.7405H170.899C175.701 91.7459 180.305 93.6561 183.701 97.0519C187.097 100.448 189.007 105.052 189.012 109.854V136.631C189.007 141.433 187.097 146.037 183.701 149.433C180.305 152.829 175.701 154.739 170.899 154.745V154.745Z" fill="#FAFAFA"/>
<path d="M170.899 154.745H18.1137C13.3113 154.739 8.70714 152.829 5.31134 149.433C1.91553 146.037 0.00539464 141.433 0 136.631V109.854C0.00545912 105.052 1.91562 100.448 5.31141 97.0519C8.7072 93.6561 13.3113 91.7459 18.1137 91.7405H170.899C175.701 91.7459 180.305 93.6561 183.701 97.0519C187.097 100.448 189.007 105.052 189.012 109.854V136.631C189.007 141.433 187.097 146.037 183.701 149.433C180.305 152.829 175.701 154.739 170.899 154.745V154.745ZM18.1137 93.3156C13.7289 93.3205 9.5251 95.0645 6.42458 98.1651C3.32405 101.266 1.58002 105.469 1.5751 109.854V136.631C1.58009 141.016 3.32414 145.219 6.42465 148.32C9.52516 151.42 13.7289 153.165 18.1137 153.17H170.899C175.284 153.165 179.487 151.42 182.588 148.32C185.688 145.219 187.432 141.016 187.437 136.631V109.854C187.432 105.469 185.688 101.266 182.588 98.1651C179.487 95.0645 175.284 93.3205 170.899 93.3156H18.1137Z" fill="#334155"/>
<path d="M62.975 139.684H38.4126C37.0996 139.682 35.8409 139.16 34.9125 138.231C33.9841 137.303 33.4619 136.044 33.4604 134.731V111.754C33.4619 110.441 33.9841 109.182 34.9125 108.254C35.8409 107.325 37.0996 106.803 38.4126 106.802H62.975C64.2879 106.803 65.5466 107.325 66.475 108.254C67.4034 109.182 67.9256 110.441 67.9271 111.754V134.731C67.9256 136.044 67.4034 137.303 66.475 138.231C65.5466 139.16 64.2879 139.682 62.975 139.684Z" fill="#F97316"/>
<path d="M106.787 139.684H82.2251C80.9121 139.682 79.6534 139.16 78.725 138.231C77.7966 137.303 77.2744 136.044 77.2729 134.731V111.754C77.2744 110.441 77.7966 109.182 78.725 108.254C79.6534 107.325 80.9121 106.803 82.2251 106.802H106.787C108.1 106.803 109.359 107.325 110.288 108.254C111.216 109.182 111.738 110.441 111.74 111.754V134.731C111.738 136.044 111.216 137.303 110.288 138.231C109.359 139.16 108.1 139.682 106.787 139.684V139.684Z" fill="#D4D4D8"/>
<path d="M150.6 139.684H126.037C124.724 139.682 123.466 139.16 122.537 138.231C121.609 137.303 121.087 136.044 121.085 134.731V111.754C121.087 110.441 121.609 109.182 122.537 108.254C123.466 107.325 124.724 106.803 126.037 106.802H150.6C151.913 106.803 153.171 107.325 154.1 108.254C155.028 109.182 155.55 110.441 155.552 111.754V134.731C155.55 136.044 155.028 137.303 154.1 138.231C153.171 139.16 151.913 139.682 150.6 139.684V139.684Z" fill="#D4D4D8"/>
<path d="M216.363 43.6998H184.861C184.025 43.6998 183.224 43.3679 182.633 42.7771C182.042 42.1864 181.71 41.3851 181.71 40.5496C181.71 39.7141 182.042 38.9129 182.633 38.3221C183.224 37.7313 184.025 37.3994 184.861 37.3994H216.363C217.198 37.3994 217.999 37.7313 218.59 38.3221C219.181 38.9129 219.513 39.7141 219.513 40.5496C219.513 41.3851 219.181 42.1864 218.59 42.7771C217.999 43.3679 217.198 43.6998 216.363 43.6998Z" fill="#E4E4E7"/>
<path d="M284.092 61.026H184.073C183.238 61.026 182.437 60.6941 181.846 60.1033C181.255 59.5125 180.923 58.7113 180.923 57.8758C180.923 57.0403 181.255 56.239 181.846 55.6483C182.437 55.0575 183.238 54.7256 184.073 54.7256H284.092C284.928 54.7256 285.729 55.0575 286.32 55.6483C286.911 56.239 287.243 57.0403 287.243 57.8758C287.243 58.7113 286.911 59.5125 286.32 60.1033C285.729 60.6941 284.928 61.026 284.092 61.026Z" fill="#E4E4E7"/>
<path d="M147.449 70.334C159.114 70.334 168.57 60.8777 168.57 49.2127C168.57 37.5477 159.114 28.0914 147.449 28.0914C135.784 28.0914 126.328 37.5477 126.328 49.2127C126.328 60.8777 135.784 70.334 147.449 70.334Z" fill="#F97316"/>
<path d="M377.237 246.888H177.987C173.184 246.883 168.58 244.973 165.184 241.577C161.789 238.181 159.878 233.577 159.873 228.775V154.745C159.879 149.942 161.789 145.338 165.184 141.942C168.58 138.547 173.184 136.636 177.987 136.631H377.237C382.04 136.636 386.644 138.547 390.04 141.942C393.435 145.338 395.346 149.942 395.351 154.745V228.775C395.346 233.577 393.436 238.181 390.04 241.577C386.644 244.973 382.04 246.883 377.237 246.888V246.888Z" fill="#FAFAFA"/>
<path d="M377.237 246.888H177.987C173.184 246.883 168.58 244.973 165.184 241.577C161.789 238.181 159.878 233.577 159.873 228.775V154.745C159.879 149.942 161.789 145.338 165.184 141.942C168.58 138.547 173.184 136.636 177.987 136.631H377.237C382.04 136.636 386.644 138.547 390.04 141.942C393.435 145.338 395.346 149.942 395.351 154.745V228.775C395.346 233.577 393.436 238.181 390.04 241.577C386.644 244.973 382.04 246.883 377.237 246.888V246.888ZM177.987 138.206C173.602 138.211 169.398 139.955 166.298 143.056C163.197 146.156 161.453 150.36 161.448 154.745V228.775C161.453 233.159 163.197 237.363 166.298 240.464C169.398 243.564 173.602 245.308 177.987 245.313H377.237C381.622 245.308 385.826 243.564 388.926 240.464C392.027 237.363 393.771 233.159 393.776 228.775V154.745C393.771 150.36 392.027 146.156 388.926 143.056C385.826 139.955 381.622 138.211 377.237 138.206H177.987Z" fill="#334155"/>
<path d="M255.591 165.962H222.122C221.702 165.963 221.286 165.881 220.898 165.72C220.51 165.56 220.157 165.325 219.859 165.028C219.562 164.731 219.326 164.379 219.165 163.99C219.004 163.602 218.921 163.186 218.921 162.766C218.921 162.346 219.004 161.93 219.165 161.542C219.326 161.154 219.562 160.801 219.859 160.504C220.157 160.208 220.51 159.972 220.898 159.812C221.286 159.652 221.702 159.569 222.122 159.57H255.591C256.438 159.571 257.249 159.909 257.848 160.508C258.446 161.107 258.782 161.919 258.782 162.766C258.782 163.613 258.446 164.425 257.848 165.024C257.249 165.624 256.438 165.961 255.591 165.962V165.962Z" fill="#F97316"/>
<path d="M330.616 179.034H222.123C221.275 179.034 220.462 178.698 219.863 178.098C219.263 177.499 218.927 176.686 218.927 175.838C218.927 174.991 219.263 174.178 219.863 173.578C220.462 172.979 221.275 172.642 222.123 172.642H330.616C331.464 172.642 332.277 172.979 332.876 173.578C333.475 174.178 333.812 174.991 333.812 175.838C333.812 176.686 333.475 177.499 332.876 178.098C332.277 178.698 331.464 179.034 330.616 179.034V179.034Z" fill="#D4D4D8"/>
<path d="M330.616 194.039H222.123C221.703 194.039 221.287 193.957 220.9 193.796C220.512 193.635 220.16 193.4 219.863 193.103C219.566 192.806 219.331 192.454 219.17 192.066C219.009 191.678 218.927 191.263 218.927 190.843C218.927 190.423 219.009 190.008 219.17 189.62C219.331 189.232 219.566 188.88 219.863 188.583C220.16 188.286 220.512 188.051 220.9 187.89C221.287 187.73 221.703 187.647 222.123 187.647H330.616C331.464 187.647 332.277 187.984 332.876 188.583C333.475 189.183 333.812 189.996 333.812 190.843C333.812 191.691 333.475 192.504 332.876 193.103C332.277 193.703 331.464 194.039 330.616 194.039Z" fill="#D4D4D8"/>
<path d="M330.616 209.044H222.122C221.702 209.045 221.286 208.963 220.898 208.802C220.51 208.642 220.157 208.407 219.859 208.11C219.562 207.813 219.326 207.461 219.165 207.072C219.004 206.684 218.921 206.268 218.921 205.848C218.921 205.428 219.004 205.012 219.165 204.624C219.326 204.236 219.562 203.883 219.859 203.586C220.157 203.29 220.51 203.054 220.898 202.894C221.286 202.734 221.702 202.651 222.122 202.652H330.616C331.462 202.653 332.274 202.991 332.872 203.59C333.471 204.189 333.807 205.001 333.807 205.848C333.807 206.695 333.471 207.507 332.872 208.106C332.274 208.706 331.462 209.043 330.616 209.044V209.044Z" fill="#D4D4D8"/>
<path d="M330.616 224.049H222.123C221.275 224.049 220.462 223.713 219.863 223.113C219.263 222.514 218.927 221.701 218.927 220.853C218.927 220.006 219.263 219.193 219.863 218.593C220.462 217.994 221.275 217.657 222.123 217.657H330.616C331.464 217.657 332.277 217.994 332.876 218.593C333.475 219.193 333.812 220.006 333.812 220.853C333.812 221.701 333.475 222.514 332.876 223.113C332.277 223.713 331.464 224.049 330.616 224.049V224.049Z" fill="#D4D4D8"/>
<path d="M471.355 460.653L460.419 460.652L455.216 418.468L471.358 418.469L471.355 460.653Z" fill="#FECDD3"/>
<path d="M471.74 472.062L438.109 472.06V471.635C438.11 468.164 439.489 464.834 441.944 462.379C444.399 459.925 447.728 458.545 451.2 458.545H451.2L457.343 453.885L468.805 458.546L471.741 458.546L471.74 472.062Z" fill="#0F172A"/>
<path d="M548.01 440.536L539.064 446.825L510.544 415.312L523.748 406.027L548.01 440.536Z" fill="#FECDD3"/>
<path d="M554.888 449.647L527.377 468.99L527.132 468.643C525.135 465.803 524.348 462.286 524.944 458.866C525.541 455.446 527.471 452.402 530.31 450.405L530.311 450.405L532.655 443.059L544.712 440.279L547.114 438.59L554.888 449.647Z" fill="#0F172A"/>
<path d="M514.929 250.789L515.838 252.73C521.811 265.491 523.338 279.756 521.017 293.653C520.844 294.195 520.877 294.782 521.109 295.302C522.549 296.99 520.29 304.326 518.996 308.422L517.829 315.666C517.829 315.666 519.764 322.393 516.825 321.899C513.886 321.404 518.262 328.58 515.459 330.378L508.187 375.522L538.527 425.527L527.29 441.821L482.341 383.949L481.779 331.697L475.037 373.836L474.475 440.135L454.032 437.962L446.542 373.684L453.686 284.79L464.924 246.248L514.929 250.789Z" fill="#0F172A"/>
<path d="M388.321 235.356C389.381 234.173 390.861 233.449 392.446 233.341C394.031 233.232 395.596 233.746 396.808 234.773C397.051 234.986 397.276 235.218 397.481 235.468L417.515 228.302L424.728 237.189L396.222 244.038C395.12 244.806 393.795 245.189 392.453 245.125C391.112 245.061 389.829 244.555 388.805 243.686C388.227 243.185 387.753 242.576 387.411 241.893C387.069 241.209 386.864 240.465 386.809 239.703C386.755 238.94 386.851 238.175 387.092 237.449C387.333 236.724 387.714 236.053 388.215 235.475C388.25 235.435 388.285 235.395 388.321 235.356Z" fill="#FECDD3"/>
<path d="M500.883 135.056L484.344 135.843L476.436 149.506L465.198 152.877L455.647 176.475L461.505 250.038C461.505 250.038 462.68 254.488 460.517 253.838C458.355 253.189 459.236 258.765 459.236 258.765L451.267 289.416L523.722 283.116L519.699 250.641C519.699 250.641 525.292 250.821 521.359 246.888C517.426 242.955 515.514 244.208 519.292 239.558C523.07 234.909 523.632 231.538 523.632 231.538L525.317 208.501L528.096 176.082C528.537 170.937 527.692 165.764 525.638 161.027C523.584 156.29 520.384 152.138 516.328 148.944V148.944L500.883 135.056Z" fill="#F97316"/>
<path d="M539.917 295.64C540.805 294.322 541.144 292.71 540.862 291.147C540.58 289.583 539.699 288.192 538.406 287.268C538.141 287.084 537.86 286.923 537.568 286.786L539.616 265.607L529.235 260.787L529.566 290.102C529.09 291.358 529.044 292.737 529.434 294.022C529.824 295.308 530.628 296.428 531.722 297.208C532.348 297.646 533.055 297.956 533.801 298.121C534.548 298.286 535.319 298.302 536.072 298.168C536.824 298.035 537.543 297.755 538.188 297.344C538.832 296.932 539.389 296.398 539.827 295.772C539.858 295.728 539.888 295.684 539.917 295.64Z" fill="#FECDD3"/>
<path d="M524.252 158.13C524.252 158.13 548.068 214.864 547.348 236.65L539.473 276.815L528.447 276.028L529.235 239.8C533.258 235.687 516.421 212.457 510.871 196.109L524.252 158.13Z" fill="#F97316"/>
<path d="M466.322 152.315C466.322 152.315 436.756 206.152 425.306 221.986L416.615 228.774V239.8L436.825 240.246C436.825 240.246 466.884 215.244 465.76 202.883C464.636 190.522 466.322 152.315 466.322 152.315Z" fill="#F97316"/>
<path d="M492.307 131.262C503.89 131.262 513.281 121.872 513.281 110.288C513.281 98.7047 503.89 89.3144 492.307 89.3144C480.723 89.3144 471.333 98.7047 471.333 110.288C471.333 121.872 480.723 131.262 492.307 131.262Z" fill="#FECDD3"/>
<path d="M500.411 129.543C494.393 129.346 493.846 127.756 487.827 127.558C485.911 127.495 483.649 127.233 482.723 125.554C482.063 124.358 482.366 122.853 482.947 121.617C483.634 120.437 484.253 119.219 484.801 117.969C485.132 116.989 485.218 115.943 485.054 114.922C484.889 113.901 484.479 112.935 483.857 112.108C483.236 111.281 482.422 110.618 481.487 110.176C480.552 109.734 479.523 109.526 478.489 109.571C476.658 109.65 474.938 110.511 473.111 110.668C470.606 110.884 465.067 102.614 466.22 100.379C467.343 98.2048 469.602 96.564 469.957 94.1425C470.19 92.5588 469.536 90.9851 469.447 89.3869C469.314 87.0172 475.321 92.3604 474.221 90.2574C471.522 85.0985 496.952 78.7028 501.139 85.1648C502.703 87.5799 505.492 87.4152 507.977 88.8656C509.606 89.8162 513.72 93.0958 514.655 95.1399C515.514 97.2257 515.92 99.4704 515.846 101.725C515.884 112.211 514.286 121.856 505.828 128.054" fill="#0F172A"/>
<path d="M402.393 467.693C396.706 468.194 390.979 467.419 385.629 465.423C380.28 463.428 375.444 460.263 371.475 456.159C366.284 450.687 362.722 443.643 359.278 436.831C358.275 434.849 357.239 432.799 356.184 430.835C355.009 428.693 354.501 426.248 354.727 423.815C354.954 421.383 355.903 419.073 357.453 417.185C358.939 415.297 360.956 413.898 363.245 413.167C365.533 412.435 367.988 412.406 370.293 413.083L370.796 413.228L375.319 430.88C375.994 428.247 377.443 422.315 378.358 416.503L378.434 416.016L378.885 416.217C383.609 418.307 388.05 420.983 392.105 424.183C399.288 429.945 405.13 437.202 409.226 445.449C413.321 453.697 415.571 462.737 415.82 471.943L415.832 472.491L402.393 467.693Z" fill="#D4D4D8"/>
<path d="M575.062 473.671L355.532 473.913C355.283 473.913 355.045 473.814 354.869 473.638C354.693 473.462 354.594 473.224 354.594 472.975C354.594 472.727 354.693 472.488 354.869 472.312C355.045 472.136 355.283 472.038 355.532 472.038L575.062 471.796C575.185 471.795 575.308 471.819 575.422 471.866C575.536 471.913 575.64 471.982 575.727 472.069C575.814 472.156 575.884 472.26 575.931 472.374C575.978 472.488 576.003 472.61 576.003 472.733C576.003 472.857 575.978 472.979 575.931 473.093C575.884 473.207 575.814 473.31 575.727 473.397C575.64 473.484 575.536 473.553 575.422 473.6C575.308 473.647 575.185 473.671 575.062 473.671V473.671Z" fill="#F4F4F5"/>
</g>
<defs>
<clipPath id="clip0_636_1156">
<rect width="576" height="473.913" fill="white"/>
</clipPath>
</defs>
</svg>
