<svg width="576" height="482" viewBox="0 0 576 482" fill="none" xmlns="http://www.w3.org/2000/svg">
<g clip-path="url(#clip0_636_1078)">
<path d="M270.549 481.582C396.182 481.582 498.029 476.374 498.029 469.95C498.029 463.525 396.182 458.317 270.549 458.317C144.915 458.317 43.0684 463.525 43.0684 469.95C43.0684 476.374 144.915 481.582 270.549 481.582Z" fill="#E4E4E7"/>
<path d="M403.453 111.767H400.868V40.9735C400.868 30.1067 396.551 19.6849 388.867 12.0009C381.183 4.31686 370.762 1.19978e-05 359.895 0H209.909C199.042 -2.05675e-05 188.62 4.31679 180.936 12.0008C173.252 19.6848 168.935 30.1066 168.935 40.9734V429.354C168.935 440.22 173.252 450.642 180.936 458.326C188.62 466.01 199.042 470.327 209.909 470.327H359.895C370.762 470.327 381.183 466.01 388.867 458.326C396.551 450.642 400.868 440.221 400.868 429.354V162.159H403.452L403.453 111.767Z" fill="#334155"/>
<path d="M392.147 41.2594V429.068C392.147 437.184 388.923 444.967 383.185 450.705C377.446 456.444 369.663 459.668 361.547 459.668H210.842C202.726 459.668 194.943 456.444 189.204 450.705C183.466 444.967 180.242 437.184 180.242 429.068V41.2594C180.242 33.1438 183.466 25.3607 189.204 19.6221C194.943 13.8835 202.726 10.6596 210.842 10.6594H229.124C228.226 12.867 227.884 15.2615 228.128 17.6323C228.372 20.0031 229.195 22.2776 230.525 24.2557C231.854 26.2337 233.65 27.8548 235.753 28.9762C237.856 30.0976 240.202 30.685 242.586 30.6867H328.511C330.894 30.685 333.241 30.0975 335.344 28.9761C337.447 27.8547 339.242 26.2337 340.572 24.2556C341.901 22.2776 342.724 20.0031 342.969 17.6323C343.213 15.2615 342.871 12.867 341.972 10.6594H361.547C369.663 10.6596 377.446 13.8835 383.185 19.6221C388.923 25.3607 392.147 33.1438 392.147 41.2594V41.2594Z" fill="#FAFAFA"/>
<path d="M343.597 208.481C342.595 209.004 341.576 209.5 340.54 209.967C339.596 210.394 338.638 210.794 337.664 211.169C337.309 211.305 336.947 211.441 336.585 211.576C333.724 212.614 330.785 213.424 327.796 214C326.316 214.291 324.817 214.519 323.298 214.685C322.044 214.827 320.778 214.928 319.498 214.988C318.587 215.034 317.676 215.053 316.758 215.053C313.124 215.055 309.498 214.715 305.927 214.038C304.996 213.87 304.085 213.67 303.174 213.45C298.766 212.394 294.499 210.819 290.462 208.759C290.1 208.578 289.738 208.384 289.376 208.196C288.84 207.912 288.317 207.615 287.793 207.305C288.045 206.956 288.317 206.613 288.594 206.277C291.618 202.529 295.398 199.461 299.687 197.272C303.977 195.083 308.679 193.823 313.488 193.573C318.297 193.323 323.104 194.089 327.597 195.821C332.09 197.554 336.168 200.214 339.564 203.627C340.743 204.81 341.836 206.076 342.834 207.414C343.099 207.763 343.351 208.119 343.597 208.481Z" fill="#F97316"/>
<path d="M318.048 180.093C333.72 180.093 346.425 167.388 346.425 151.716C346.425 136.044 333.72 123.339 318.048 123.339C302.376 123.339 289.671 136.044 289.671 151.716C289.671 167.388 302.376 180.093 318.048 180.093Z" fill="#0F172A"/>
<path d="M325.595 180.133C335.83 174.538 339.592 161.705 333.997 151.47C328.402 141.236 315.569 137.474 305.335 143.069C295.1 148.664 291.338 161.496 296.933 171.731C302.528 181.966 315.361 185.728 325.595 180.133Z" fill="#881337"/>
<path d="M337.657 148.317C332.831 151.643 327.103 153.413 321.241 153.39C323.332 154.84 325.712 155.819 328.218 156.26C320.425 157.932 312.37 157.977 304.559 156.393C302.822 156.115 301.147 155.539 299.606 154.692C298.838 154.263 298.169 153.677 297.642 152.973C297.116 152.269 296.743 151.461 296.549 150.603C296.03 147.638 298.34 144.944 300.742 143.128C304.418 140.391 308.657 138.505 313.152 137.606C317.647 136.708 322.285 136.82 326.732 137.935C329.635 138.685 332.543 139.953 334.429 142.285C336.315 144.616 336.873 148.211 335.077 150.612L337.657 148.317Z" fill="#0F172A"/>
<path d="M316.758 98.728C304.074 98.7261 291.736 102.872 281.627 110.533C271.517 118.194 264.189 128.95 260.761 141.162C257.332 153.375 257.99 166.373 262.635 178.177C267.28 189.98 275.656 199.941 286.488 206.542L286.863 206.762C287.173 206.949 287.483 207.13 287.793 207.305C288.317 207.615 288.84 207.912 289.377 208.196C289.738 208.384 290.1 208.578 290.462 208.759C294.499 210.819 298.766 212.394 303.174 213.45C304.085 213.67 304.996 213.87 305.927 214.038C309.498 214.715 313.124 215.055 316.758 215.053C317.676 215.053 318.587 215.034 319.499 214.988C320.778 214.93 322.045 214.829 323.298 214.685C324.817 214.517 326.316 214.288 327.796 214C330.785 213.424 333.724 212.614 336.585 211.576C336.947 211.441 337.309 211.305 337.665 211.169C338.64 210.794 339.599 210.394 340.54 209.967C341.574 209.502 342.593 209.006 343.597 208.481C353.658 203.212 361.973 195.137 367.534 185.235C367.56 185.183 367.592 185.132 367.618 185.08C370.585 179.756 372.69 173.995 373.855 168.012C375.489 159.59 375.242 150.911 373.129 142.595C371.017 134.28 367.092 126.534 361.636 119.913C356.18 113.292 349.327 107.96 341.569 104.297C333.81 100.635 325.338 98.7328 316.758 98.728H316.758ZM366.558 184.324C366.507 184.414 366.462 184.505 366.41 184.589C360.96 194.344 352.761 202.282 342.835 207.414C341.846 207.931 340.84 208.416 339.817 208.868C338.97 209.25 338.104 209.612 337.232 209.948C336.863 210.09 336.488 210.232 336.114 210.361C333.642 211.264 331.108 211.99 328.533 212.533C326.623 212.939 324.692 213.244 322.749 213.444C321.553 213.573 320.338 213.664 319.117 213.709C318.335 213.741 317.547 213.761 316.758 213.761C313.241 213.765 309.732 213.438 306.276 212.785C304.174 212.397 302.096 211.888 300.053 211.26C296.94 210.298 293.915 209.072 291.012 207.595C290.676 207.421 290.34 207.246 290.01 207.065C289.538 206.813 289.06 206.555 288.595 206.277C288.246 206.083 287.897 205.876 287.554 205.67C287.354 205.553 287.153 205.43 286.953 205.308C277.456 199.475 269.881 190.983 265.166 180.885C260.451 170.786 258.806 159.526 260.432 148.5C262.059 137.475 266.887 127.17 274.318 118.864C281.748 110.557 291.454 104.615 302.23 101.774C313.007 98.9335 324.38 99.3193 334.94 102.884C345.499 106.448 354.78 113.034 361.63 121.825C368.481 130.616 372.599 141.224 373.475 152.335C374.351 163.445 371.946 174.568 366.558 184.324H366.558Z" fill="#334155"/>
<path d="M303.678 123.731C303.372 120.52 299.439 118.544 296.363 119.514C293.288 120.483 291.268 123.58 290.658 126.747C290.364 128.081 290.337 129.459 290.577 130.804C290.817 132.148 291.32 133.432 292.057 134.581C293.612 136.819 296.469 138.215 299.134 137.647C302.176 136.999 304.283 134.028 304.886 130.977C305.489 127.926 304.89 124.78 304.293 121.728L303.678 123.731Z" fill="#0F172A"/>
<path d="M346.965 128.317C346.66 125.107 342.727 123.13 339.651 124.1C336.575 125.07 334.556 128.167 333.945 131.334C333.652 132.667 333.624 134.046 333.864 135.39C334.104 136.735 334.608 138.018 335.345 139.168C336.899 141.405 339.757 142.802 342.421 142.234C345.463 141.585 347.571 138.615 348.174 135.564C348.777 132.512 348.178 129.367 347.58 126.314L346.965 128.317Z" fill="#0F172A"/>
<path d="M216.225 180.135C215.823 180.135 215.425 180.05 215.057 179.888C214.689 179.725 214.359 179.487 214.088 179.189L182.02 144.205C181.656 143.809 181.214 143.493 180.722 143.276C180.229 143.06 179.697 142.947 179.159 142.947H9.69976C7.12811 142.944 4.66261 141.921 2.84418 140.103C1.02575 138.284 0.00288731 135.819 0 133.247V72.1359C0.0028856 69.5643 1.02575 67.0988 2.84418 65.2803C4.66261 63.4619 7.12811 62.439 9.69976 62.4362H229.247C231.819 62.439 234.285 63.4619 236.103 65.2803C237.921 67.0988 238.944 69.5643 238.947 72.1359V133.247C238.944 135.819 237.921 138.284 236.103 140.103C234.285 141.921 231.819 142.944 229.247 142.947H223.023C221.994 142.948 221.008 143.357 220.28 144.085C219.553 144.812 219.144 145.799 219.143 146.827V177.223C219.145 177.809 218.969 178.383 218.638 178.867C218.306 179.352 217.836 179.724 217.288 179.934C216.949 180.067 216.589 180.135 216.225 180.135V180.135Z" fill="#FAFAFA"/>
<path d="M216.225 180.135C215.823 180.135 215.425 180.05 215.057 179.888C214.689 179.725 214.359 179.487 214.088 179.189L182.02 144.205C181.656 143.809 181.214 143.493 180.722 143.276C180.229 143.06 179.697 142.947 179.159 142.947H9.69976C7.12811 142.944 4.66261 141.921 2.84418 140.103C1.02575 138.284 0.00288731 135.819 0 133.247V72.1359C0.0028856 69.5643 1.02575 67.0988 2.84418 65.2803C4.66261 63.4619 7.12811 62.439 9.69976 62.4362H229.247C231.819 62.439 234.285 63.4619 236.103 65.2803C237.921 67.0988 238.944 69.5643 238.947 72.1359V133.247C238.944 135.819 237.921 138.284 236.103 140.103C234.285 141.921 231.819 142.944 229.247 142.947H223.023C221.994 142.948 221.008 143.357 220.28 144.085C219.553 144.812 219.144 145.799 219.143 146.827V177.223C219.145 177.809 218.969 178.383 218.638 178.867C218.306 179.352 217.836 179.724 217.288 179.934C216.949 180.067 216.589 180.135 216.225 180.135V180.135ZM9.69976 63.7287C7.47078 63.7312 5.33382 64.6177 3.7577 66.1939C2.18158 67.77 1.29502 69.9069 1.2925 72.1359V133.247C1.29502 135.476 2.18159 137.613 3.75771 139.189C5.33383 140.765 7.47079 141.652 9.69976 141.654H179.159C179.876 141.655 180.585 141.805 181.242 142.093C181.898 142.382 182.487 142.804 182.972 143.332L215.041 178.315C215.261 178.556 215.549 178.724 215.866 178.798C216.183 178.872 216.516 178.848 216.819 178.73C217.123 178.612 217.384 178.405 217.568 178.136C217.752 177.867 217.85 177.548 217.85 177.223V146.827C217.852 145.456 218.397 144.141 219.367 143.171C220.337 142.201 221.652 141.656 223.023 141.654H229.247C231.476 141.652 233.613 140.765 235.189 139.189C236.766 137.613 237.652 135.476 237.655 133.247V72.1359C237.652 69.9069 236.766 67.77 235.189 66.1939C233.613 64.6177 231.476 63.7312 229.247 63.7287H9.69976Z" fill="#334155"/>
<path d="M23.7924 89.394C28.48 89.394 32.28 85.594 32.28 80.9064C32.28 76.2188 28.48 72.4187 23.7924 72.4187C19.1047 72.4187 15.3047 76.2188 15.3047 80.9064C15.3047 85.594 19.1047 89.394 23.7924 89.394Z" fill="#F97316"/>
<path d="M219.345 127.871H19.602C19.0071 127.872 18.4179 127.756 17.868 127.528C17.3182 127.301 16.8185 126.968 16.3976 126.548C15.9767 126.127 15.6427 125.628 15.4149 125.078C15.1871 124.529 15.0698 123.94 15.0698 123.345C15.0698 122.75 15.1871 122.161 15.4149 121.611C15.6427 121.062 15.9767 120.562 16.3976 120.142C16.8185 119.722 17.3182 119.388 17.868 119.161C18.4179 118.934 19.0071 118.817 19.602 118.818H219.345C220.545 118.819 221.695 119.297 222.542 120.146C223.39 120.995 223.866 122.145 223.866 123.345C223.866 124.544 223.39 125.695 222.542 126.544C221.695 127.393 220.545 127.87 219.345 127.871V127.871Z" fill="#D4D4D8"/>
<path d="M154.273 108.633H19.602C19.0071 108.633 18.4179 108.517 17.868 108.29C17.3182 108.063 16.8185 107.729 16.3976 107.309C15.9767 106.888 15.6427 106.389 15.4149 105.84C15.1871 105.29 15.0698 104.701 15.0698 104.106C15.0698 103.511 15.1871 102.922 15.4149 102.372C15.6427 101.823 15.9767 101.324 16.3976 100.903C16.8185 100.483 17.3182 100.149 17.868 99.9223C18.4179 99.6951 19.0071 99.5785 19.602 99.5792H154.273C155.474 99.5792 156.625 100.056 157.474 100.905C158.323 101.754 158.8 102.905 158.8 104.106C158.8 105.307 158.323 106.458 157.474 107.307C156.625 108.156 155.474 108.633 154.273 108.633Z" fill="#D4D4D8"/>
<path d="M358.712 387.381C358.164 387.17 357.693 386.798 357.362 386.314C357.031 385.83 356.855 385.256 356.857 384.669V354.274C356.856 353.245 356.447 352.259 355.719 351.531C354.992 350.804 354.006 350.394 352.977 350.393H346.752C344.181 350.39 341.715 349.367 339.897 347.549C338.078 345.731 337.056 343.265 337.053 340.693V279.582C337.056 277.011 338.078 274.545 339.897 272.727C341.715 270.908 344.181 269.885 346.752 269.883H566.3C568.872 269.885 571.337 270.908 573.156 272.727C574.974 274.545 575.997 277.011 576 279.582V340.693C575.997 343.265 574.974 345.731 573.156 347.549C571.337 349.367 568.872 350.39 566.3 350.393H396.841C396.303 350.394 395.771 350.506 395.278 350.723C394.786 350.939 394.344 351.255 393.98 351.652L361.912 386.635C361.641 386.933 361.311 387.171 360.943 387.334C360.575 387.497 360.177 387.581 359.775 387.582C359.411 387.581 359.051 387.513 358.712 387.381V387.381Z" fill="#FAFAFA"/>
<path d="M358.712 387.381C358.164 387.17 357.693 386.798 357.362 386.314C357.031 385.83 356.855 385.256 356.857 384.669V354.274C356.856 353.245 356.447 352.259 355.719 351.531C354.992 350.804 354.006 350.394 352.977 350.393H346.752C344.181 350.39 341.715 349.367 339.897 347.549C338.078 345.731 337.056 343.265 337.053 340.693V279.582C337.056 277.011 338.078 274.545 339.897 272.727C341.715 270.908 344.181 269.885 346.752 269.883H566.3C568.872 269.885 571.337 270.908 573.156 272.727C574.974 274.545 575.997 277.011 576 279.582V340.693C575.997 343.265 574.974 345.731 573.156 347.549C571.337 349.367 568.872 350.39 566.3 350.393H396.841C396.303 350.394 395.771 350.506 395.278 350.723C394.786 350.939 394.344 351.255 393.98 351.652L361.912 386.635C361.641 386.933 361.311 387.171 360.943 387.334C360.575 387.497 360.177 387.581 359.775 387.582C359.411 387.581 359.051 387.513 358.712 387.381V387.381ZM346.752 271.175C344.524 271.178 342.387 272.064 340.81 273.64C339.234 275.216 338.348 277.353 338.345 279.582V340.693C338.348 342.922 339.234 345.059 340.81 346.635C342.387 348.212 344.524 349.098 346.752 349.101H352.977C354.348 349.102 355.663 349.648 356.633 350.618C357.603 351.587 358.148 352.902 358.15 354.274V384.669C358.15 384.995 358.248 385.313 358.432 385.582C358.616 385.851 358.877 386.058 359.181 386.176C359.484 386.294 359.817 386.318 360.134 386.244C360.451 386.17 360.739 386.002 360.959 385.762L393.027 350.778C393.512 350.25 394.102 349.828 394.758 349.54C395.414 349.251 396.124 349.101 396.841 349.101H566.3C568.529 349.098 570.666 348.212 572.242 346.635C573.818 345.059 574.705 342.922 574.707 340.693V279.582C574.705 277.353 573.818 275.216 572.242 273.64C570.666 272.064 568.529 271.178 566.3 271.175H346.752Z" fill="#334155"/>
<path d="M290.281 406.305C281.278 412.07 270.847 415.213 260.157 415.384C249.468 415.554 238.942 412.743 229.76 407.267C231.375 404.261 233.422 401.506 235.835 399.092C239.558 395.351 244.089 392.514 249.08 390.797C254.071 389.081 259.389 388.531 264.626 389.191C269.862 389.851 274.878 391.702 279.287 394.602C283.697 397.503 287.382 401.376 290.061 405.923C290.132 406.046 290.21 406.175 290.281 406.305Z" fill="#F97316"/>
<path d="M257.494 375.401C273.27 375.401 286.059 362.611 286.059 346.835C286.059 331.059 273.27 318.27 257.494 318.27C241.718 318.27 228.928 331.059 228.928 346.835C228.928 362.611 241.718 375.401 257.494 375.401Z" fill="#0F172A"/>
<path d="M278.749 366.984C284.381 356.681 280.595 343.763 270.292 338.131C259.989 332.499 247.071 336.285 241.439 346.588C235.807 356.891 239.593 369.809 249.896 375.441C260.199 381.073 273.117 377.287 278.749 366.984Z" fill="#FECDD3"/>
<path d="M237.754 343.413C242.612 346.762 248.379 348.544 254.279 348.52C252.175 349.98 249.778 350.965 247.256 351.41C255.101 353.092 263.209 353.138 271.073 351.543C272.821 351.263 274.507 350.684 276.058 349.831C276.831 349.399 277.505 348.81 278.035 348.101C278.565 347.392 278.94 346.579 279.136 345.715C279.658 342.73 277.332 340.018 274.915 338.19C271.214 335.435 266.947 333.536 262.422 332.632C257.897 331.728 253.228 331.841 248.752 332.962C245.83 333.718 242.902 334.994 241.004 337.341C239.105 339.688 238.543 343.307 240.352 345.723L237.754 343.413Z" fill="#0F172A"/>
<path d="M259.242 416.037C245.252 416.033 231.733 410.985 221.164 401.819C210.595 392.653 203.686 379.984 201.703 366.135C199.719 352.287 202.796 338.187 210.367 326.424C217.939 314.66 229.498 306.02 242.924 302.09C256.35 298.16 270.744 299.202 283.464 305.025C296.184 310.849 306.378 321.063 312.176 333.795C317.974 346.527 318.987 360.922 315.03 374.34C311.072 387.759 302.41 399.3 290.631 406.848C281.264 412.854 270.369 416.044 259.242 416.037V416.037ZM259.242 301.004C247.992 301.003 236.995 304.338 227.641 310.587C218.288 316.837 210.997 325.719 206.691 336.112C202.386 346.505 201.259 357.941 203.454 368.974C205.648 380.008 211.065 390.142 219.019 398.097C226.974 406.051 237.109 411.468 248.142 413.663C259.175 415.857 270.611 414.73 281.004 410.425C291.397 406.119 300.28 398.829 306.529 389.475C312.778 380.121 316.113 369.124 316.112 357.875C316.095 342.797 310.098 328.342 299.436 317.68C288.775 307.019 274.319 301.022 259.242 301.004V301.004Z" fill="#334155"/>
<path d="M364.367 296.194C369.054 296.194 372.854 292.394 372.854 287.707C372.854 283.019 369.054 279.219 364.367 279.219C359.679 279.219 355.879 283.019 355.879 287.707C355.879 292.394 359.679 296.194 364.367 296.194Z" fill="#F97316"/>
<path d="M559.919 334.672H360.176C359.581 334.672 358.992 334.556 358.442 334.329C357.892 334.101 357.393 333.768 356.972 333.348C356.551 332.927 356.217 332.428 355.989 331.878C355.761 331.329 355.644 330.74 355.644 330.145C355.644 329.55 355.761 328.961 355.989 328.411C356.217 327.862 356.551 327.363 356.972 326.942C357.393 326.522 357.892 326.188 358.442 325.961C358.992 325.734 359.581 325.617 360.176 325.618H559.919C561.12 325.618 562.271 326.095 563.12 326.944C563.969 327.793 564.446 328.944 564.446 330.145C564.446 331.346 563.969 332.497 563.12 333.346C562.271 334.195 561.12 334.672 559.919 334.672Z" fill="#D4D4D8"/>
<path d="M494.847 315.433H360.176C359.581 315.434 358.992 315.317 358.442 315.09C357.892 314.863 357.393 314.529 356.972 314.109C356.551 313.689 356.217 313.189 355.989 312.64C355.761 312.09 355.644 311.501 355.644 310.906C355.644 310.311 355.761 309.722 355.989 309.173C356.217 308.623 356.551 308.124 356.972 307.703C357.393 307.283 357.892 306.95 358.442 306.722C358.992 306.495 359.581 306.379 360.176 306.379H494.847C496.047 306.381 497.197 306.858 498.045 307.707C498.892 308.556 499.369 309.707 499.369 310.906C499.369 312.106 498.892 313.256 498.045 314.105C497.197 314.954 496.047 315.432 494.847 315.433V315.433Z" fill="#D4D4D8"/>
<path d="M358.439 393.166C367.185 393.166 374.274 392.379 374.274 391.409C374.274 390.438 367.185 389.651 358.439 389.651C349.693 389.651 342.603 390.438 342.603 391.409C342.603 392.379 349.693 393.166 358.439 393.166Z" fill="#E4E4E7"/>
<path d="M216.91 186.366C225.656 186.366 232.746 185.579 232.746 184.609C232.746 183.638 225.656 182.851 216.91 182.851C208.164 182.851 201.074 183.638 201.074 184.609C201.074 185.579 208.164 186.366 216.91 186.366Z" fill="#E4E4E7"/>
</g>
<defs>
<clipPath id="clip0_636_1078">
<rect width="576" height="481.582" fill="white"/>
</clipPath>
</defs>
</svg>
