<svg xmlns="http://www.w3.org/2000/svg" viewBox="0 0 4096 1024"><defs><style>.cls-1{fill:#ea580c;}.cls-2{fill:#f59e0b;}.cls-3{fill:#f97316;}</style></defs><g id="Layer_2" data-name="Layer 2"><g id="Banner"><g id="Logo"><path class="cls-1" d="M696.79,771.38l-437.53,250a8,8,0,0,1-8.77-.54L5.66,837.22A8,8,0,0,1,4.48,825.5L501.89,265.91a8,8,0,0,1,13.47,2.51l184.95,493.2A8,8,0,0,1,696.79,771.38Z" transform="translate(0 -16)"/><path class="cls-2" d="M259.39,1017l249-373.46a8,8,0,0,0,.77-7.41L263.11,21a8,8,0,0,0-15.07.62L.35,826.62a8,8,0,0,0,2.85,8.76l244.73,183.55A8,8,0,0,0,259.39,1017Z" transform="translate(0 -16)"/></g><path class="cls-3" d="M1972.06,652.16V455.94h64.25q19.08,0,33.19,7.25a51.87,51.87,0,0,1,21.77,20.57q7.67,13.31,7.67,31.31,0,17.74-7.8,31.18a52.79,52.79,0,0,1-21.77,20.7q-14,7.26-33.06,7.26h-35.22v77.95Zm29-104h35.22q15,0,24.05-9t9-24.06q0-15.32-9-24.19T2036.31,482h-35.22Z" transform="translate(0 -16)"/><path class="cls-3" d="M2167.75,652.16V455.94h61.55q18.55,0,32.26,7.12a52.4,52.4,0,0,1,21.37,20q7.65,12.92,7.66,30.38,0,19.62-10.08,34a53.71,53.71,0,0,1-27.29,20.3l40.05,84.4h-33.06l-35.75-80.64h-27.68v80.64Zm29-106.18h32.52q14.52,0,23.12-8.73T2261,514q0-15.06-8.6-23.66t-23.12-8.6h-32.52Z" transform="translate(0 -16)"/><path class="cls-3" d="M2421.49,654.85q-18.28,0-31.58-6.86a47.55,47.55,0,0,1-20.43-19.89q-7.12-13-7.13-30.51V510.5q0-17.75,7.13-30.64a47.77,47.77,0,0,1,20.43-19.76q13.31-6.86,31.58-6.85t31.58,6.85a47.82,47.82,0,0,1,20.43,19.76q7.13,12.9,7.13,30.37v87.36q0,17.48-7.13,30.51A47.61,47.61,0,0,1,2453.07,648Q2439.76,654.84,2421.49,654.85Zm0-25.81q14.78,0,22.45-8.2t7.66-23.25V510.5q0-15.31-7.66-23.38t-22.45-8.07q-14.52,0-22.31,8.07t-7.8,23.38v87.09q0,15.06,7.8,23.25T2421.49,629Z" transform="translate(0 -16)"/><path class="cls-3" d="M2554.27,652.16V455.94H2590l19.63,62.89q3,8.88,5.1,17.07t3,12.23q1.08-4,3.09-12.23t4.71-17.07l18.81-62.89h35.75V652.16h-27.41V586q0-12.63.67-28.08t2-31.19q1.35-15.72,2.69-30.1t2.42-25.13l-29,95.42h-28l-29.57-95.42q1.33,10.47,2.68,24.32t2.42,29.44q1.08,15.59,1.89,31.31t.8,29.43v66.13Z" transform="translate(0 -16)"/><path class="cls-3" d="M2757.49,652.16V455.94H2872.8v25.8H2786v55.64h77.41v25.54H2786v63.43h86.82v25.81Z" transform="translate(0 -16)"/><path class="cls-3" d="M2994,652.16V482.55h-52.42V455.67h133.86v26.88h-52.41V652.16Z" transform="translate(0 -16)"/><path class="cls-3" d="M3146.43,652.16V455.94h29v81.17H3233V455.94h29V652.16h-29V564h-57.53v88.17Z" transform="translate(0 -16)"/><path class="cls-3" d="M3344.54,652.16V455.94h115.31v25.8H3373v55.64h77.41v25.54H3373v63.43h86.82v25.81Z" transform="translate(0 -16)"/><path class="cls-3" d="M3595.59,654.85q-28.22,0-43.54-15.46t-15.32-42.07V455.94h29V597.32q0,14.79,7.39,23.39t22.44,8.6q14.79,0,22.31-8.6t7.53-23.39V455.94h29V597.32q0,26.61-15.32,42.07T3595.59,654.85Z" transform="translate(0 -16)"/><path class="cls-3" d="M3792.08,654.85q-19.89,0-34.14-6.59a50.56,50.56,0,0,1-22-18.81q-7.8-12.24-7.79-29.17h28.76q0,13.44,9.41,21.1t26.07,7.66q15.58,0,24.46-7.52t8.87-20.7a30.88,30.88,0,0,0-6-19.09q-6-8.06-17.33-11l-24.73-7.25q-21.51-6.19-33.2-21.11t-11.69-35.61q0-16.12,7.26-28.23a49,49,0,0,1,20.69-18.81q13.44-6.72,31.72-6.72,26.88,0,43.14,14.51t16.53,39h-29q0-12.9-8.19-20.29t-23-7.4q-14.25,0-22.31,6.86t-8.06,19.22a30.89,30.89,0,0,0,6,19.08q6,8.07,17.33,11.29l25,7.53q21.51,5.91,33.07,21t11.55,36q0,16.41-7.79,28.9A52.07,52.07,0,0,1,3824.88,648Q3810.9,654.84,3792.08,654.85Z" transform="translate(0 -16)"/></g></g></svg>
