<svg width="576" height="403" viewBox="0 0 576 403" fill="none" xmlns="http://www.w3.org/2000/svg">
<g clip-path="url(#clip0_635_1615)">
<path d="M486.334 279.589C485.737 278.93 485.293 278.148 485.031 277.299C484.769 276.45 484.697 275.553 484.82 274.673C484.942 273.793 485.256 272.95 485.739 272.204C486.223 271.459 486.864 270.828 487.618 270.356L482.796 249.299L493.314 253.232L496.28 272.626C496.988 273.944 497.187 275.476 496.841 276.931C496.495 278.387 495.626 279.665 494.4 280.523C493.175 281.382 491.676 281.76 490.189 281.588C488.703 281.416 487.331 280.705 486.334 279.589V279.589Z" fill="#FECDD3"/>
<path d="M485.606 262.876L476.36 245.007L477.611 200.013L478.205 201.264C478.897 202.722 495.119 237.053 493.962 248.546L495.817 259.049L485.606 262.876Z" fill="#1E293B"/>
<path d="M479.578 394.933H486.992L490.518 366.347L479.576 366.348L479.578 394.933Z" fill="#FECDD3"/>
<path d="M477.687 392.513L492.287 392.513H492.288C494.755 392.513 497.122 393.493 498.867 395.237C500.611 396.981 501.592 399.347 501.592 401.814V402.116L477.687 402.117L477.687 392.513Z" fill="#334155"/>
<path d="M406.327 389.301L413.469 391.286L424.529 364.69L413.987 361.76L406.327 389.301Z" fill="#FECDD3"/>
<path d="M405.153 386.463L419.219 390.373L419.22 390.373C421.598 391.034 423.615 392.612 424.829 394.76C426.042 396.908 426.352 399.449 425.691 401.826L425.61 402.117L402.579 395.716L405.153 386.463Z" fill="#334155"/>
<path d="M472.186 383.789L457.224 276.697L424.908 383.183L399.499 374.51L435.917 231.922L436.156 231.905L474.307 229.252L501.871 375.134L472.186 383.789Z" fill="#334155"/>
<path d="M468.229 181.458C468.229 181.458 454.321 174.204 435.575 177.227C435.575 177.227 425.597 201.29 435.575 210.869L438.296 234.957C438.296 234.957 463.694 250.069 472.16 232.539L470.95 212.59C470.95 212.59 476.997 203.023 472.16 196.019C469.26 191.74 467.876 186.614 468.229 181.458Z" fill="#F97316"/>
<path d="M469.991 291.019L472.432 240.381L465.523 180.142L465.841 180.094C474.903 178.728 477.81 194.336 477.929 195.001L493.704 284.158L469.991 291.019Z" fill="#1E293B"/>
<path d="M439.236 291.547L411.349 288.45L411.356 288.145C411.455 284.018 413.856 186.983 420.581 180.111C427.347 173.198 440.113 176.189 440.654 176.32L440.923 176.385L438.628 217.445L439.236 291.547Z" fill="#1E293B"/>
<path d="M444.372 233.552C443.528 233.829 442.633 233.917 441.75 233.811C440.867 233.705 440.019 233.407 439.264 232.937C438.509 232.468 437.867 231.838 437.381 231.094C436.896 230.349 436.58 229.507 436.456 228.627L415.25 224.474L423.119 216.466L442.05 221.638C443.542 221.527 445.024 221.967 446.214 222.874C447.403 223.782 448.219 225.095 448.505 226.563C448.791 228.032 448.529 229.554 447.767 230.842C447.005 232.13 445.798 233.094 444.372 233.552V233.552Z" fill="#FECDD3"/>
<path d="M433.056 228.691L426.147 227.206C415.946 230.272 398.141 219.476 390.944 214.68C389.59 213.778 389.151 211.99 389.639 209.367C390.359 205.698 392.382 202.414 395.335 200.119L420.679 180.03L427.077 178.96L428.977 189.724L412.829 207.062L436.6 219.996L433.056 228.691Z" fill="#1E293B"/>
<path d="M430.323 168.114V154.157C430.323 148.251 432.67 142.588 436.847 138.412C441.024 134.237 446.689 131.891 452.597 131.891C458.504 131.891 464.169 134.237 468.346 138.412C472.523 142.588 474.87 148.251 474.87 154.157V168.114C474.869 168.907 474.553 169.667 473.993 170.228C473.432 170.789 472.671 171.104 471.878 171.105H433.315C432.522 171.104 431.762 170.789 431.201 170.228C430.64 169.667 430.324 168.907 430.323 168.114Z" fill="#334155"/>
<path d="M451.701 170.968C460.72 170.968 468.031 163.659 468.031 154.643C468.031 145.628 460.72 138.319 451.701 138.319C442.683 138.319 435.371 145.628 435.371 154.643C435.371 163.659 442.683 170.968 451.701 170.968Z" fill="#FECDD3"/>
<path d="M434.923 154.58C434.767 154.4 434.652 154.189 434.585 153.96C434.517 153.732 434.5 153.491 434.534 153.256L436.469 139.79C436.507 139.516 436.613 139.256 436.777 139.033C436.941 138.811 437.159 138.632 437.409 138.515C447.283 133.895 457.295 133.889 467.169 138.497C467.431 138.621 467.656 138.811 467.822 139.048C467.989 139.286 468.091 139.562 468.119 139.851L469.41 153.334C469.432 153.564 469.406 153.797 469.333 154.016C469.26 154.236 469.141 154.438 468.985 154.61C468.83 154.781 468.64 154.918 468.428 155.012C468.216 155.105 467.987 155.154 467.755 155.154H464.48C464.164 155.153 463.855 155.062 463.588 154.893C463.322 154.723 463.109 154.481 462.974 154.195L461.561 151.168C461.469 150.972 461.317 150.811 461.126 150.709C460.935 150.607 460.716 150.571 460.502 150.604C460.288 150.638 460.091 150.74 459.941 150.895C459.79 151.051 459.694 151.251 459.667 151.466L459.388 153.698C459.338 154.099 459.142 154.469 458.839 154.737C458.535 155.005 458.144 155.153 457.739 155.154H436.179C435.941 155.154 435.706 155.102 435.489 155.004C435.272 154.905 435.079 154.76 434.923 154.58Z" fill="#334155"/>
<path d="M366.345 26.8293H0V254.878H366.345V26.8293Z" fill="#E4E4E7"/>
<path d="M91.6625 70.7622H24.5663V114.36H91.6625V70.7622Z" fill="#FAFAFA"/>
<path d="M175.035 70.7622H107.938V114.36H175.035V70.7622Z" fill="#FAFAFA"/>
<path d="M258.407 70.7622H191.311V114.36H258.407V70.7622Z" fill="#FAFAFA"/>
<path d="M341.779 70.7622H274.683V114.36H341.779V70.7622Z" fill="#FAFAFA"/>
<path d="M91.6625 132.469H24.5663V176.067H91.6625V132.469Z" fill="#FAFAFA"/>
<path d="M175.035 132.469H107.938V176.067H175.035V132.469Z" fill="#FAFAFA"/>
<path d="M258.407 132.469H191.311V176.067H258.407V132.469Z" fill="#FAFAFA"/>
<path d="M341.779 132.469H274.683V176.067H341.779V132.469Z" fill="#FAFAFA"/>
<path d="M91.6625 194.177H24.5663V237.774H91.6625V194.177Z" fill="#FAFAFA"/>
<path d="M175.035 194.177H107.938V237.774H175.035V194.177Z" fill="#FAFAFA"/>
<path d="M258.407 194.177H191.311V237.774H258.407V194.177Z" fill="#FAFAFA"/>
<path d="M341.779 194.177H274.683V237.774H341.779V194.177Z" fill="#FAFAFA"/>
<path d="M95.9475 53.6585C101.506 53.6585 106.012 49.1541 106.012 43.5975C106.012 38.041 101.506 33.5366 95.9475 33.5366C90.3891 33.5366 85.8831 38.041 85.8831 43.5975C85.8831 49.1541 90.3891 53.6585 95.9475 53.6585Z" fill="#FAFAFA"/>
<path d="M262.346 53.6585C267.904 53.6585 272.41 49.1541 272.41 43.5976C272.41 38.0411 267.904 33.5366 262.346 33.5366C256.788 33.5366 252.282 38.0411 252.282 43.5976C252.282 49.1541 256.788 53.6585 262.346 53.6585Z" fill="#FAFAFA"/>
<path d="M99.9733 0H91.9218V46.2805H99.9733V0Z" fill="#E4E4E7"/>
<path d="M266.372 0H258.32V46.2805H266.372V0Z" fill="#E4E4E7"/>
<path d="M323.403 92.5609C323.4 96.2033 322.082 99.7222 319.691 102.471C317.3 105.22 313.998 107.013 310.39 107.523C306.782 108.032 303.111 107.223 300.052 105.244C296.993 103.265 294.752 100.249 293.739 96.7501C292.726 93.2511 293.011 89.5044 294.54 86.1984C296.07 82.8923 298.741 80.249 302.064 78.7541C305.386 77.2592 309.137 77.0131 312.627 78.0611C316.116 79.1091 319.11 81.3807 321.059 84.4586C322.593 86.8825 323.406 89.6925 323.403 92.5609Z" fill="#F97316"/>
<path d="M321.059 84.4586L306.123 99.3864C305.184 97.9336 299.955 91.1821 299.955 91.1821C300.625 90.5049 301.34 89.8738 302.095 89.293L306.432 95.0733L319.31 82.2001C319.963 82.896 320.548 83.6523 321.059 84.4586Z" fill="#FAFAFA"/>
<path d="M156.659 154.268C156.656 157.911 155.338 161.43 152.947 164.178C150.556 166.927 147.253 168.721 143.646 169.23C140.038 169.74 136.367 168.931 133.308 166.952C130.249 164.972 128.008 161.956 126.995 158.457C125.982 154.959 126.267 151.212 127.796 147.906C129.325 144.6 131.997 141.956 135.319 140.461C138.642 138.967 142.393 138.72 145.882 139.768C149.372 140.816 152.366 143.088 154.314 146.166C155.849 148.59 156.662 151.4 156.659 154.268Z" fill="#F97316"/>
<path d="M154.314 146.166L139.379 161.094C138.44 159.641 133.21 152.889 133.21 152.889C133.881 152.212 134.596 151.581 135.351 151L139.688 156.781L152.565 143.907C153.219 144.603 153.804 145.36 154.314 146.166Z" fill="#FAFAFA"/>
<path d="M73.2873 154.268C73.2839 157.911 71.9656 161.43 69.5748 164.178C67.184 166.927 63.8813 168.721 60.2734 169.23C56.6656 169.74 52.995 168.931 49.9361 166.952C46.8772 164.972 44.6354 161.956 43.6228 158.457C42.6102 154.958 42.8946 151.212 44.4239 147.906C45.9532 144.6 48.6247 141.956 51.9473 140.461C55.27 138.966 59.0207 138.72 62.5103 139.768C65.9999 140.816 68.994 143.088 70.9424 146.166C72.4768 148.59 73.2901 151.4 73.2873 154.268Z" fill="#F97316"/>
<path d="M70.9424 146.166L56.0068 161.094C55.0681 159.641 49.8383 152.889 49.8383 152.889C50.5085 152.212 51.2237 151.581 51.9791 151L56.3158 156.781L69.1934 143.907C69.8465 144.603 70.4321 145.36 70.9424 146.166Z" fill="#FAFAFA"/>
<path d="M575.335 402.602H322.019C321.842 402.602 321.673 402.532 321.548 402.407C321.424 402.283 321.354 402.114 321.354 401.937C321.354 401.761 321.424 401.592 321.548 401.468C321.673 401.343 321.842 401.273 322.019 401.273H575.335C575.512 401.273 575.681 401.343 575.805 401.468C575.93 401.592 576 401.761 576 401.937C576 402.114 575.93 402.283 575.805 402.407C575.681 402.532 575.512 402.602 575.335 402.602Z" fill="#1E293B"/>
</g>
<defs>
<clipPath id="clip0_635_1615">
<rect width="576" height="402.602" fill="white"/>
</clipPath>
</defs>
</svg>
