<svg xmlns="http://www.w3.org/2000/svg" viewBox="0 0 2048 2048"><defs><style>.cls-1{fill:#ea580c;}.cls-2{fill:#f59e0b;}</style></defs><g id="Layer_2" data-name="Layer 2"><g id="Logo"><g id="Logo-2" data-name="Logo"><path class="cls-1" d="M1400.79,1523.38l-885.53,506a8,8,0,0,1-8.77-.55L5.66,1653.21a8,8,0,0,1-1.18-11.71L1013.89,505.91a8,8,0,0,1,13.47,2.51l377,1005.2A8,8,0,0,1,1400.79,1523.38Z"/><path class="cls-2" d="M515.39,2025l505-757.46a8,8,0,0,0,.77-7.41L519.11,5A8,8,0,0,0,504,5.65L.35,1642.62a8,8,0,0,0,2.85,8.75l500.73,375.55A8,8,0,0,0,515.39,2025Z"/></g></g></g></svg>
