<svg width="576" height="356" viewBox="0 0 576 356" fill="none" xmlns="http://www.w3.org/2000/svg">
<g clip-path="url(#clip0_632_1003)">
<path d="M153.027 298.835H113.694V313.953H153.027V298.835Z" stroke="#334155" stroke-width="1.35" stroke-linecap="round" stroke-linejoin="round"/>
<path d="M151.406 316.053H112.435C111.975 316.021 111.544 315.818 111.229 315.482C110.914 315.146 110.739 314.703 110.739 314.244C110.739 313.784 110.914 313.342 111.229 313.006C111.544 312.67 111.975 312.466 112.435 312.435H151.406C151.696 312.435 151.974 312.32 152.179 312.115C152.385 311.911 152.5 311.634 152.5 311.344V301.255C152.498 300.966 152.382 300.69 152.178 300.485C151.973 300.282 151.695 300.166 151.406 300.164H112.435C111.955 300.164 111.495 299.973 111.155 299.636C110.816 299.297 110.625 298.838 110.625 298.359C110.625 297.881 110.816 297.422 111.155 297.083C111.495 296.745 111.955 296.555 112.435 296.555H151.406C152.656 296.557 153.854 297.052 154.737 297.933C155.621 298.814 156.118 300.009 156.121 301.255V311.344C156.121 312.592 155.624 313.788 154.74 314.67C153.856 315.553 152.657 316.05 151.406 316.053Z" fill="#0F172A"/>
<path d="M151.406 316.053H112.435C111.975 316.021 111.544 315.818 111.229 315.482C110.914 315.146 110.739 314.703 110.739 314.244C110.739 313.784 110.914 313.342 111.229 313.006C111.544 312.67 111.975 312.466 112.435 312.435H151.406C151.696 312.435 151.974 312.32 152.179 312.115C152.385 311.911 152.5 311.634 152.5 311.344V301.255C152.498 300.966 152.382 300.69 152.178 300.485C151.973 300.282 151.695 300.166 151.406 300.164H112.435C111.955 300.164 111.495 299.973 111.155 299.636C110.816 299.297 110.625 298.838 110.625 298.359C110.625 297.881 110.816 297.422 111.155 297.083C111.495 296.745 111.955 296.555 112.435 296.555H151.406C152.656 296.557 153.854 297.052 154.737 297.933C155.621 298.814 156.118 300.009 156.121 301.255V311.344C156.121 312.592 155.624 313.788 154.74 314.67C153.856 315.553 152.657 316.05 151.406 316.053Z" stroke="#334155" stroke-width="1.35" stroke-linecap="round" stroke-linejoin="round"/>
<path d="M153.858 303.453H131.789" stroke="#334155" stroke-width="1.35" stroke-linecap="round" stroke-linejoin="round"/>
<path d="M153.858 308.055H128.999" stroke="#334155" stroke-width="1.35" stroke-linecap="round" stroke-linejoin="round"/>
<path d="M153.858 319.891H70.922V347.092H153.858V319.891Z" fill="#F1F5F9"/>
<path d="M153.858 319.891H70.922V347.092H153.858V319.891Z" stroke="#334155" stroke-width="1.35" stroke-linecap="round" stroke-linejoin="round"/>
<path d="M70.922 329.218H106.906" stroke="#334155" stroke-width="1.35" stroke-linecap="round" stroke-linejoin="round"/>
<path d="M70.922 337.79H116.936" stroke="#334155" stroke-width="1.35" stroke-linecap="round" stroke-linejoin="round"/>
<path d="M156.466 349.799H74.3698C72.7438 349.796 71.1845 349.154 70.0315 348.01C68.8787 346.868 68.2257 345.317 68.2148 343.696V322.73C68.2257 321.109 68.8787 319.558 70.0315 318.415C71.1845 317.271 72.7438 316.629 74.3698 316.627H156.466C157.185 316.627 157.873 316.911 158.38 317.417C158.888 317.924 159.173 318.609 159.173 319.325C159.173 320.042 158.888 320.727 158.38 321.233C157.873 321.739 157.185 322.024 156.466 322.024H74.3698C74.1734 322.024 73.985 322.102 73.8461 322.241C73.7072 322.378 73.6292 322.566 73.6292 322.762V343.696C73.6292 343.892 73.7072 344.08 73.8461 344.218C73.985 344.356 74.1734 344.434 74.3698 344.434H156.466C157.185 344.434 157.873 344.719 158.38 345.225C158.888 345.731 159.173 346.417 159.173 347.133C159.173 347.849 158.888 348.535 158.38 349.041C157.873 349.547 157.185 349.832 156.466 349.832V349.799Z" fill="#F97316"/>
<path d="M156.466 349.799H74.3698C72.7438 349.796 71.1845 349.154 70.0315 348.01C68.8787 346.868 68.2257 345.317 68.2148 343.696V322.73C68.2257 321.109 68.8787 319.558 70.0315 318.415C71.1845 317.271 72.7438 316.629 74.3698 316.627H156.466C157.185 316.627 157.873 316.911 158.38 317.417C158.888 317.924 159.173 318.609 159.173 319.325C159.173 320.042 158.888 320.727 158.38 321.233C157.873 321.739 157.185 322.024 156.466 322.024H74.3698C74.1734 322.024 73.985 322.102 73.8461 322.241C73.7072 322.378 73.6292 322.566 73.6292 322.762V343.696C73.6292 343.892 73.7072 344.08 73.8461 344.218C73.985 344.356 74.1734 344.434 74.3698 344.434H156.466C157.185 344.434 157.873 344.719 158.38 345.225C158.888 345.731 159.173 346.417 159.173 347.133C159.173 347.849 158.888 348.535 158.38 349.041C157.873 349.547 157.185 349.832 156.466 349.832V349.799Z" stroke="#334155" stroke-width="1.35" stroke-linecap="round" stroke-linejoin="round"/>
<path d="M491.567 350.34H365.423H346.053H330.007H326.839H53.9301" stroke="#334155" stroke-width="1.35" stroke-linecap="round" stroke-linejoin="round"/>
<path d="M185.859 257.805V260.848C185.859 262.323 185.334 263.75 184.378 264.875H151.587V257.837L185.859 257.805Z" fill="#F1F5F9"/>
<path d="M185.859 257.805V260.848C185.859 262.323 185.334 263.75 184.378 264.875H151.587V257.837L185.859 257.805Z" stroke="#334155" stroke-width="1.35" stroke-linecap="round" stroke-linejoin="round"/>
<path d="M362.139 350.34L275.114 348.052L188.097 350.34C174.248 326.897 185.99 293.979 212.174 267.279C225.455 253.736 242.068 248.06 255.209 245.755C261.777 244.595 268.447 244.117 275.114 244.328C281.076 244.134 287.044 244.5 292.937 245.419C306.374 247.477 324.058 253.006 338.046 267.279C364.246 293.979 375.988 326.897 362.139 350.34Z" fill="#F97316"/>
<path d="M362.139 350.34L275.114 348.052L188.097 350.34C174.248 326.897 185.99 293.979 212.174 267.279C225.455 253.736 242.068 248.06 255.209 245.755C261.777 244.595 268.447 244.117 275.114 244.328C281.076 244.134 287.044 244.5 292.937 245.419C306.374 247.477 324.058 253.006 338.046 267.279C364.246 293.979 375.988 326.897 362.139 350.34Z" stroke="#334155" stroke-width="1.35" stroke-linecap="round" stroke-linejoin="round"/>
<path d="M185.538 308.645C185.538 308.645 194.153 299.778 205.081 303.068C215.679 306.25 222.673 319.621 221.595 327.028C221.036 330.891 215.358 332.999 209.335 328.389C203.311 323.78 185.538 308.645 185.538 308.645Z" fill="#0F172A"/>
<path d="M185.538 308.645C185.538 308.645 194.153 299.778 205.081 303.068C215.679 306.25 222.673 319.621 221.595 327.028C221.036 330.891 215.358 332.999 209.335 328.389C203.311 323.78 185.538 308.645 185.538 308.645Z" stroke="#334155" stroke-width="1.35" stroke-linecap="round" stroke-linejoin="round"/>
<path d="M364.674 308.645C364.674 308.645 356.059 299.778 345.131 303.068C334.524 306.25 327.538 319.621 328.616 327.028C329.176 330.891 334.854 332.999 340.869 328.389C346.884 323.78 364.674 308.645 364.674 308.645Z" fill="#0F172A"/>
<path d="M364.674 308.645C364.674 308.645 356.059 299.778 345.131 303.068C334.524 306.25 327.538 319.621 328.616 327.028C329.176 330.891 334.854 332.999 340.869 328.389C346.884 323.78 364.674 308.645 364.674 308.645Z" stroke="#334155" stroke-width="1.35" stroke-linecap="round" stroke-linejoin="round"/>
<path d="M277.484 259.552C276.661 259.609 275.78 259.642 274.859 259.642C274.127 259.642 273.427 259.642 272.752 259.585C254.386 258.674 255.209 245.763 255.209 245.763C261.776 244.603 268.447 244.125 275.114 244.336C281.076 244.14 287.043 244.502 292.937 245.419C292.937 245.419 295.175 258.387 277.484 259.552Z" fill="#0F172A"/>
<path d="M285.531 236.305V249.905C285.531 249.905 282.322 254.31 274.168 254.31C266.013 254.31 262.788 249.905 262.788 249.905V236.305H285.531Z" fill="#F1F5F9"/>
<path d="M285.531 236.305V249.905C285.531 249.905 282.322 254.31 274.168 254.31C266.013 254.31 262.788 249.905 262.788 249.905V236.305H285.531Z" stroke="#334155" stroke-width="1.35" stroke-linecap="round" stroke-linejoin="round"/>
<path d="M296.459 215.068C296.459 231.195 286.214 243.442 273.584 243.442C260.953 243.442 250.708 231.195 250.708 215.068C250.708 198.942 260.953 183.365 273.584 183.365C286.214 183.365 296.459 198.942 296.459 215.068Z" fill="#F1F5F9"/>
<path d="M296.459 215.068C296.459 231.195 286.214 243.442 273.584 243.442C260.953 243.442 250.708 231.195 250.708 215.068C250.708 198.942 260.953 183.365 273.584 183.365C286.214 183.365 296.459 198.942 296.459 215.068Z" stroke="#334155" stroke-width="1.35" stroke-linecap="round" stroke-linejoin="round"/>
<path d="M300.952 208.826C300.804 209.236 300.655 209.646 300.507 209.974C300.156 210.832 299.726 211.656 299.224 212.435C299.004 212.787 298.751 213.117 298.467 213.42L297.924 213.674C297.636 213.813 297.348 213.936 297.101 214.059L296.484 214.305L295.932 214.519C274.538 222.451 259.307 196.85 259.307 196.85C259.192 208.432 253.621 215.175 251.531 217.308C251.314 217.535 251.087 217.751 250.848 217.956L250.741 218.054C250.33 217.562 249.918 217.078 249.572 216.594C249.49 216.479 249.408 216.373 249.326 216.274C248.881 215.667 248.453 215.068 248.058 214.469C247.43 213.524 246.85 212.546 246.322 211.541C245.87 210.663 245.499 209.794 245.113 208.924C244.045 206.333 243.395 203.589 243.187 200.795C242.076 185.022 256.18 171.856 269.338 170.576C287.128 168.846 290.608 177.779 290.608 177.779C292.945 177.147 302.622 179.616 302.894 194.184C303.017 201.148 302.03 205.824 300.952 208.826Z" fill="#F97316"/>
<path d="M248.7 219.998L245.722 219.268L246.635 215.544C246.289 212.952 244.389 195.857 253.448 185.309C258.023 179.993 264.598 177.303 272.999 177.303C282.462 177.303 289.654 180.28 294.394 186.145C303.708 197.719 299.915 216.291 299.454 218.366L296.459 217.701C296.887 215.774 300.425 198.523 292.007 188.057C287.893 182.946 281.508 180.354 273.024 180.354C265.561 180.354 259.768 182.692 255.802 187.286C247.112 197.375 249.704 215.216 249.737 215.396V215.692L248.7 219.998Z" fill="#F1F5F9"/>
<path d="M248.7 219.998L245.722 219.268L246.635 215.544C246.289 212.952 244.389 195.857 253.448 185.309C258.023 179.993 264.598 177.303 272.999 177.303C282.462 177.303 289.654 180.28 294.394 186.145C303.708 197.719 299.915 216.291 299.454 218.366L296.459 217.701C296.887 215.774 300.425 198.523 292.007 188.057C287.893 182.946 281.508 180.354 273.024 180.354C265.561 180.354 259.768 182.692 255.802 187.286C247.112 197.375 249.704 215.216 249.737 215.396V215.692L248.7 219.998Z" stroke="#334155" stroke-width="1.35" stroke-linecap="round" stroke-linejoin="round"/>
<path d="M279.697 210.983C279.302 211.664 284.215 213.682 284.914 212.985C285.614 212.288 280.249 210.032 279.697 210.983Z" fill="#334155"/>
<path d="M281.08 220.466C280.842 220.466 280.614 220.371 280.445 220.204C280.277 220.036 280.183 219.809 280.183 219.572V217.373C280.183 217.136 280.277 216.909 280.445 216.741C280.614 216.573 280.842 216.479 281.08 216.479C281.198 216.478 281.316 216.5 281.425 216.545C281.536 216.589 281.635 216.655 281.719 216.738C281.803 216.821 281.871 216.92 281.916 217.03C281.961 217.138 281.985 217.255 281.985 217.373V219.58C281.984 219.697 281.959 219.814 281.913 219.921C281.867 220.029 281.801 220.127 281.717 220.21C281.633 220.292 281.533 220.357 281.424 220.401C281.314 220.444 281.197 220.466 281.08 220.466Z" fill="#334155"/>
<path d="M267.264 220.466C267.146 220.466 267.028 220.444 266.918 220.4C266.808 220.356 266.709 220.29 266.625 220.206C266.54 220.124 266.473 220.024 266.428 219.915C266.382 219.807 266.359 219.69 266.359 219.572V217.373C266.359 217.255 266.382 217.138 266.428 217.03C266.473 216.92 266.54 216.821 266.625 216.738C266.709 216.655 266.808 216.589 266.918 216.545C267.028 216.5 267.146 216.478 267.264 216.479C267.383 216.478 267.5 216.5 267.61 216.545C267.72 216.589 267.819 216.655 267.903 216.738C267.987 216.821 268.055 216.92 268.1 217.03C268.145 217.138 268.169 217.255 268.169 217.373V219.58C268.168 219.697 268.144 219.814 268.098 219.921C268.051 220.029 267.985 220.127 267.901 220.21C267.816 220.292 267.717 220.357 267.608 220.401C267.499 220.444 267.382 220.466 267.264 220.466Z" fill="#334155"/>
<path d="M279.837 220.466C280.203 220.225 280.633 220.096 281.071 220.096C281.51 220.096 281.94 220.225 282.306 220.466" stroke="#334155" stroke-width="1.35" stroke-linecap="round" stroke-linejoin="round"/>
<path d="M271.781 232.959C271.781 232.959 278.537 232.36 282.01 227.364" stroke="#334155" stroke-width="1.35" stroke-linecap="round" stroke-linejoin="round"/>
<path d="M268.646 210.983C269.041 211.664 264.137 213.682 263.429 212.985C262.722 212.288 268.095 210.032 268.646 210.983Z" fill="#334155"/>
<path d="M268.506 220.466C268.14 220.225 267.711 220.096 267.272 220.096C266.834 220.096 266.404 220.225 266.038 220.466" stroke="#334155" stroke-width="1.35" stroke-linecap="round" stroke-linejoin="round"/>
<path d="M272.045 221.475C272.045 221.475 271.518 224.149 274.127 223.878C276.735 223.607 276.793 220.81 274.95 220.745" stroke="#334155" stroke-width="1.35" stroke-linecap="round" stroke-linejoin="round"/>
<path d="M203.246 303.117C219.308 308.276 217.555 343.031 208.183 350.34H173.623C173.623 350.34 172.133 329.899 178.288 318.161C184.443 306.422 195.313 300.582 203.246 303.117Z" fill="#F1F5F9"/>
<path d="M203.246 303.117C219.308 308.276 217.555 343.031 208.183 350.34H173.623C173.623 350.34 172.133 329.899 178.288 318.161C184.443 306.422 195.313 300.582 203.246 303.117Z" stroke="#334155" stroke-width="1.35" stroke-linecap="round" stroke-linejoin="round"/>
<path d="M184.814 350.34H204.184C205.673 354.163 212.988 354.392 220.229 350.34L220.345 350.274C221.431 349.656 222.333 348.762 222.959 347.682C223.584 346.603 223.912 345.377 223.908 344.131V343.351C223.912 342.106 223.583 340.881 222.958 339.804C222.332 338.726 221.43 337.832 220.345 337.216H220.295C218.65 336.322 213.712 337.519 210.972 336.822C208.232 336.125 203.838 332.934 202.497 331.572L202.439 331.515C201.03 329.923 199.106 328.874 197.002 328.549C194.898 328.225 192.746 328.644 190.919 329.735C186.937 331.867 185.398 343.015 184.814 350.34Z" fill="#F1F5F9"/>
<path d="M184.814 350.34H204.184C205.673 354.163 212.988 354.392 220.229 350.34L220.345 350.274C221.431 349.656 222.333 348.762 222.959 347.682C223.584 346.603 223.912 345.377 223.908 344.131V343.351C223.912 342.106 223.583 340.881 222.958 339.804C222.332 338.726 221.43 337.832 220.345 337.216H220.295C218.65 336.322 213.712 337.519 210.972 336.822C208.232 336.125 203.838 332.934 202.497 331.572L202.439 331.515C201.03 329.923 199.106 328.874 197.002 328.549C194.898 328.225 192.746 328.644 190.919 329.735C186.937 331.867 185.398 343.015 184.814 350.34Z" stroke="#334155" stroke-width="1.35" stroke-linecap="round" stroke-linejoin="round"/>
<path d="M220.567 350.151L220.229 350.34C212.988 354.392 205.673 354.163 204.184 350.34C203.798 349.255 203.798 348.07 204.184 346.985C206.537 339.086 214.683 339.488 214.683 339.488" stroke="#334155" stroke-width="1.35" stroke-linecap="round" stroke-linejoin="round"/>
<path d="M347.023 303.117C330.953 308.276 332.714 343.031 342.086 350.34H376.597C376.597 350.34 378.086 329.899 371.931 318.161C365.776 306.422 354.915 300.582 347.023 303.117Z" fill="#F1F5F9"/>
<path d="M347.023 303.117C330.953 308.276 332.714 343.031 342.086 350.34H376.597C376.597 350.34 378.086 329.899 371.931 318.161C365.776 306.422 354.915 300.582 347.023 303.117Z" stroke="#334155" stroke-width="1.35" stroke-linecap="round" stroke-linejoin="round"/>
<path d="M365.423 350.34H346.053C344.555 354.163 337.248 354.392 330.007 350.34L329.892 350.274C328.805 349.657 327.901 348.763 327.274 347.683C326.646 346.604 326.318 345.378 326.32 344.131V343.351C326.318 342.105 326.648 340.881 327.275 339.803C327.902 338.725 328.805 337.833 329.892 337.216C331.537 336.322 336.516 337.519 339.223 336.822C341.93 336.125 346.357 332.934 347.698 331.572L347.756 331.515C349.164 329.921 351.088 328.87 353.192 328.545C355.297 328.22 357.45 328.64 359.276 329.735C363.3 331.867 364.838 343.015 365.423 350.34Z" fill="#F1F5F9"/>
<path d="M365.423 350.34H346.053C344.555 354.163 337.248 354.392 330.007 350.34L329.892 350.274C328.805 349.657 327.901 348.763 327.274 347.683C326.646 346.604 326.318 345.378 326.32 344.131V343.351C326.318 342.105 326.648 340.881 327.275 339.803C327.902 338.725 328.805 337.833 329.892 337.216C331.537 336.322 336.516 337.519 339.223 336.822C341.93 336.125 346.357 332.934 347.698 331.572L347.756 331.515C349.164 329.921 351.088 328.87 353.192 328.545C355.297 328.22 357.45 328.64 359.276 329.735C363.3 331.867 364.838 343.015 365.423 350.34Z" stroke="#334155" stroke-width="1.35" stroke-linecap="round" stroke-linejoin="round"/>
<path d="M335.553 339.488C335.553 339.488 343.699 339.086 346.052 346.985C346.43 348.072 346.43 349.253 346.052 350.34C344.555 354.163 337.248 354.392 330.007 350.34L329.669 350.151" stroke="#334155" stroke-width="1.35" stroke-linecap="round" stroke-linejoin="round"/>
<path d="M372.664 351.119C372.664 351.119 376.778 353.392 378.374 347.986C380.259 341.76 377.124 329.521 373.783 328.849C370.442 328.176 368.566 332.95 368.566 332.95L372.664 351.119Z" fill="#F1F5F9"/>
<path d="M372.664 351.119C372.664 351.119 376.778 353.392 378.374 347.986C380.259 341.76 377.124 329.521 373.783 328.849C370.442 328.176 368.566 332.95 368.566 332.95L372.664 351.119Z" stroke="#334155" stroke-width="1.35" stroke-linecap="round" stroke-linejoin="round"/>
<path d="M357.943 331.982C358.751 330.585 359.951 329.452 361.395 328.723C362.838 327.995 364.464 327.702 366.073 327.881C371.989 328.283 374.301 349.208 373.478 351.808C372.656 354.409 364.427 356.09 363.357 351.185C362.288 346.28 357.943 331.982 357.943 331.982Z" fill="#F1F5F9"/>
<path d="M357.943 331.982C358.751 330.585 359.951 329.452 361.395 328.723C362.838 327.995 364.464 327.702 366.073 327.881C371.989 328.283 374.301 349.208 373.478 351.808C372.656 354.409 364.427 356.09 363.357 351.185C362.288 346.28 357.943 331.982 357.943 331.982Z" stroke="#334155" stroke-width="1.35" stroke-linecap="round" stroke-linejoin="round"/>
<path d="M364.312 350.34C364.266 351.031 364.089 351.707 363.793 352.333C361.679 356.32 352.997 356.213 350.99 350.34C350.99 350.242 350.932 350.143 350.899 350.045C349.648 345.747 348.381 336.658 347.739 331.539L347.797 331.482C349.205 329.888 351.129 328.837 353.234 328.512C355.338 328.187 357.491 328.608 359.317 329.702C361.308 332.056 364.912 344.565 364.312 350.34Z" fill="#F1F5F9"/>
<path d="M347.739 331.539L347.797 331.482C349.205 329.888 351.129 328.837 353.234 328.512C355.338 328.187 357.491 328.608 359.317 329.702C361.317 332.056 364.921 344.565 364.32 350.34C364.274 351.031 364.098 351.707 363.802 352.333C361.687 356.32 353.006 356.213 350.998 350.34C350.998 350.242 350.94 350.143 350.907 350.045C349.895 345.992 349.123 341.884 348.595 337.741" stroke="#334155" stroke-width="1.35" stroke-linecap="round" stroke-linejoin="round"/>
<path d="M177.573 351.119C177.573 351.119 173.458 353.392 171.862 347.986C169.978 341.76 173.113 329.521 176.453 328.849C179.794 328.176 181.67 332.95 181.67 332.95L177.573 351.119Z" fill="#F1F5F9"/>
<path d="M177.573 351.119C177.573 351.119 173.458 353.392 171.862 347.986C169.978 341.76 173.113 329.521 176.453 328.849C179.794 328.176 181.67 332.95 181.67 332.95L177.573 351.119Z" stroke="#334155" stroke-width="1.35" stroke-linecap="round" stroke-linejoin="round"/>
<path d="M192.31 331.982C191.501 330.585 190.301 329.453 188.857 328.725C187.414 327.997 185.789 327.703 184.18 327.881C178.264 328.283 175.951 349.208 176.774 351.808C177.597 354.409 185.826 356.09 186.904 351.185C187.982 346.28 192.31 331.982 192.31 331.982Z" fill="#F1F5F9"/>
<path d="M192.31 331.982C191.501 330.585 190.301 329.453 188.857 328.725C187.414 327.997 185.789 327.703 184.18 327.881C178.264 328.283 175.951 349.208 176.774 351.808C177.597 354.409 185.826 356.09 186.904 351.185C187.982 346.28 192.31 331.982 192.31 331.982Z" stroke="#334155" stroke-width="1.35" stroke-linecap="round" stroke-linejoin="round"/>
<path d="M185.966 350.34C186.012 351.031 186.188 351.707 186.484 352.333C188.599 356.32 197.28 356.213 199.28 350.34L199.378 350.045C200.629 345.746 201.888 336.658 202.538 331.539L202.48 331.482C201.071 329.891 199.147 328.842 197.043 328.517C194.939 328.192 192.787 328.611 190.96 329.702C188.928 332.056 185.324 344.565 185.966 350.34Z" fill="#F1F5F9"/>
<path d="M202.497 331.539L202.439 331.482C201.03 329.891 199.106 328.842 197.002 328.517C194.898 328.192 192.746 328.611 190.919 329.702C188.928 332.056 185.324 344.565 185.925 350.34C185.971 351.031 186.147 351.707 186.443 352.333C188.558 356.32 197.239 356.213 199.238 350.34L199.337 350.045C200.28 346.303 201.008 342.509 201.518 338.684" stroke="#334155" stroke-width="1.35" stroke-linecap="round" stroke-linejoin="round"/>
<path d="M290.576 177.762C278.537 168.427 249.367 168.559 243.154 200.779C242.043 185.005 256.147 171.84 269.305 170.56C287.095 168.829 290.576 177.762 290.576 177.762Z" fill="#F1F5F9"/>
<path d="M300.952 208.826C300.804 209.236 300.655 209.646 300.507 209.974C300.156 210.832 299.726 211.656 299.224 212.435C299.004 212.787 298.751 213.117 298.467 213.42L297.924 213.674C297.636 213.813 297.348 213.936 297.101 214.059L296.484 214.305L295.932 214.519C274.538 222.451 259.307 196.85 259.307 196.85C259.192 208.432 253.621 215.175 251.531 217.308C251.314 217.535 251.087 217.751 250.848 217.956L250.741 218.054C250.33 217.562 249.918 217.078 249.572 216.594C249.49 216.479 249.408 216.373 249.326 216.274C248.881 215.667 248.453 215.068 248.058 214.469C247.43 213.524 246.85 212.546 246.322 211.541C245.87 210.663 245.499 209.794 245.113 208.924C244.045 206.333 243.395 203.589 243.187 200.795C242.076 185.022 256.18 171.856 269.338 170.576C287.128 168.846 290.608 177.779 290.608 177.779C292.945 177.147 302.622 179.616 302.894 194.184C303.017 201.148 302.03 205.824 300.952 208.826Z" stroke="#334155" stroke-width="1.35" stroke-linecap="round" stroke-linejoin="round"/>
<path d="M298.373 208.593L302.971 208.997C303.943 209.082 304.841 209.549 305.468 210.293C306.095 211.039 306.398 212.002 306.313 212.97L305.663 220.325C305.585 221.214 305.332 222.079 304.917 222.872C304.503 223.663 303.937 224.366 303.25 224.94C302.564 225.514 301.77 225.947 300.916 226.215C300.061 226.482 299.163 226.58 298.27 226.502L296.803 226.373L298.373 208.593Z" fill="#F1F5F9"/>
<path d="M298.269 226.528L297.051 226.396C296.597 226.351 296.177 226.139 295.872 225.8C295.568 225.462 295.402 225.022 295.406 224.567L295.447 218.374C295.472 214.897 296.484 211.498 298.368 208.572L299.833 208.703C298.742 214.581 298.218 220.55 298.269 226.528Z" fill="#334155"/>
<path d="M250.239 226.391L248.772 226.523C246.971 226.687 245.178 226.129 243.788 224.974C242.399 223.819 241.526 222.161 241.363 220.366L240.694 213.013C240.65 212.534 240.702 212.05 240.846 211.59C240.989 211.131 241.223 210.704 241.532 210.334C241.842 209.964 242.221 209.659 242.649 209.435C243.076 209.212 243.544 209.074 244.025 209.03L248.623 208.615L250.239 226.391Z" fill="#F1F5F9"/>
<path d="M298.373 208.593L302.971 208.997C303.943 209.082 304.841 209.549 305.468 210.293C306.095 211.039 306.398 212.002 306.313 212.97L305.663 220.325C305.585 221.214 305.332 222.079 304.917 222.872C304.503 223.663 303.937 224.366 303.25 224.94C302.564 225.514 301.77 225.947 300.916 226.215C300.061 226.482 299.163 226.58 298.27 226.502L296.803 226.373L298.373 208.593Z" stroke="#334155" stroke-width="1.35" stroke-linecap="round" stroke-linejoin="round"/>
<path d="M250.239 226.391L248.772 226.523C246.971 226.687 245.178 226.129 243.788 224.974C242.399 223.819 241.526 222.161 241.363 220.366L240.694 213.013C240.65 212.534 240.702 212.05 240.846 211.59C240.989 211.131 241.223 210.704 241.532 210.334C241.842 209.964 242.221 209.659 242.649 209.435C243.076 209.212 243.544 209.074 244.025 209.03L248.623 208.615L250.239 226.391Z" stroke="#334155" stroke-width="1.35" stroke-linecap="round" stroke-linejoin="round"/>
<path d="M248.75 226.519L249.926 226.413C250.381 226.366 250.802 226.151 251.106 225.811C251.411 225.472 251.577 225.031 251.572 224.575L251.515 218.382C251.483 214.908 250.462 211.514 248.569 208.596L247.104 208.728C248.223 214.592 248.774 220.55 248.75 226.519Z" fill="#334155"/>
<path d="M298.269 226.528L297.051 226.396C296.597 226.351 296.177 226.139 295.872 225.8C295.568 225.462 295.402 225.022 295.406 224.567L295.447 218.374C295.472 214.897 296.484 211.498 298.368 208.572L299.833 208.703C298.742 214.581 298.218 220.55 298.269 226.528Z" stroke="#334155" stroke-width="1.35" stroke-linecap="round" stroke-linejoin="round"/>
<path d="M248.75 226.519L249.926 226.413C250.381 226.366 250.802 226.151 251.106 225.811C251.411 225.472 251.577 225.031 251.572 224.575L251.515 218.382C251.483 214.908 250.462 211.514 248.569 208.596L247.104 208.728C248.223 214.592 248.774 220.55 248.75 226.519Z" stroke="#334155" stroke-width="1.35" stroke-linecap="round" stroke-linejoin="round"/>
<path d="M544.443 63.5468H359.778C355.097 63.5468 351.302 67.3295 351.302 71.9957V262.817C351.302 267.483 355.097 271.265 359.778 271.265H544.443C549.125 271.265 552.919 267.483 552.919 262.817V71.9957C552.919 67.3295 549.125 63.5468 544.443 63.5468Z" fill="#F1F5F9"/>
<path d="M420.34 271.265H359.778C357.53 271.265 355.374 270.375 353.785 268.791C352.195 267.207 351.302 265.058 351.302 262.817V148.339" stroke="#334155" stroke-width="1.35" stroke-linecap="round" stroke-linejoin="round"/>
<path d="M351.302 88.9426V71.9957C351.302 69.7549 352.195 67.6059 353.785 66.0214C355.374 64.437 357.53 63.5468 359.778 63.5468H544.452C545.567 63.5425 546.673 63.7579 547.705 64.1805C548.737 64.6032 549.675 65.2249 550.466 66.0098C551.257 66.7948 551.884 67.7276 552.312 68.7548C552.739 69.7821 552.96 70.8834 552.96 71.9957V247.166" stroke="#334155" stroke-width="1.35" stroke-linecap="round" stroke-linejoin="round"/>
<path d="M552.96 71.9957V80.3871H351.36V71.9957C351.36 70.8862 351.579 69.7875 352.005 68.7625C352.431 67.7374 353.055 66.806 353.843 66.0214C354.629 65.2369 355.564 64.6146 356.592 64.19C357.62 63.7653 358.722 63.5468 359.835 63.5468H544.452C545.567 63.5425 546.673 63.7579 547.705 64.1805C548.737 64.6032 549.675 65.2249 550.466 66.0098C551.257 66.7948 551.884 67.7276 552.312 68.7548C552.739 69.7821 552.96 70.8834 552.96 71.9957Z" fill="#F97316"/>
<path d="M552.96 71.9957V80.3871H351.36V71.9957C351.36 70.8862 351.579 69.7875 352.005 68.7625C352.431 67.7374 353.055 66.806 353.843 66.0214C354.629 65.2369 355.564 64.6146 356.592 64.19C357.62 63.7653 358.722 63.5468 359.835 63.5468H544.452C545.567 63.5425 546.673 63.7579 547.705 64.1805C548.737 64.6032 549.675 65.2249 550.466 66.0098C551.257 66.7948 551.884 67.7276 552.312 68.7548C552.739 69.7821 552.96 70.8834 552.96 71.9957Z" stroke="#334155" stroke-width="1.35" stroke-linecap="round" stroke-linejoin="round"/>
<path d="M527.608 71.8152C527.611 72.3951 527.442 72.9629 527.121 73.4466C526.8 73.9303 526.342 74.3082 525.806 74.5324C525.269 74.7565 524.678 74.8168 524.107 74.7057C523.536 74.5946 523.011 74.317 522.599 73.9081C522.187 73.4992 521.905 72.9775 521.79 72.409C521.676 71.8405 521.733 71.2509 521.955 70.7148C522.176 70.1788 522.553 69.7204 523.037 69.3979C523.52 69.0754 524.088 68.9032 524.67 68.9032C525.446 68.9032 526.191 69.2095 526.741 69.7552C527.292 70.3007 527.604 71.0414 527.608 71.8152Z" fill="#F1F5F9"/>
<path d="M545.966 71.8152C545.969 72.3951 545.799 72.9629 545.479 73.4466C545.158 73.9303 544.7 74.3082 544.164 74.5324C543.627 74.7565 543.036 74.8168 542.465 74.7057C541.894 74.5946 541.369 74.317 540.957 73.9081C540.545 73.4992 540.263 72.9775 540.148 72.409C540.034 71.8405 540.091 71.2509 540.313 70.7148C540.535 70.1788 540.911 69.7204 541.395 69.3979C541.878 69.0754 542.446 68.9032 543.028 68.9032C543.804 68.9032 544.549 69.2095 545.099 69.7552C545.65 70.3007 545.962 71.0414 545.966 71.8152Z" fill="#334155"/>
<path d="M509.242 71.8152C509.245 72.3955 509.075 72.9635 508.754 73.4475C508.433 73.9313 507.974 74.3092 507.438 74.5331C506.901 74.757 506.309 74.8169 505.738 74.7051C505.167 74.5933 504.642 74.3149 504.23 73.9052C503.817 73.4955 503.537 72.9729 503.423 72.4039C503.31 71.8349 503.368 71.245 503.591 70.709C503.814 70.1732 504.192 69.7154 504.676 69.3939C505.161 69.0723 505.73 68.9016 506.312 68.9032C507.087 68.9032 507.831 69.2097 508.381 69.7556C508.93 70.3015 509.239 71.0422 509.242 71.8152Z" fill="#F1F5F9"/>
<path d="M324.016 345.984H225.693L217.72 286.276C217.672 285.913 217.703 285.544 217.809 285.193C217.916 284.843 218.096 284.519 218.338 284.243C218.581 283.967 218.878 283.747 219.213 283.595C219.548 283.443 219.911 283.365 220.279 283.365H329.431C329.799 283.365 330.162 283.443 330.496 283.595C330.831 283.747 331.129 283.967 331.372 284.243C331.614 284.519 331.794 284.843 331.901 285.193C332.007 285.544 332.038 285.913 331.99 286.276L324.016 345.984Z" fill="#0F172A"/>
<path d="M324.016 345.984H225.693L217.72 286.276C217.672 285.913 217.703 285.544 217.809 285.193C217.916 284.843 218.096 284.519 218.338 284.243C218.581 283.967 218.878 283.747 219.213 283.595C219.548 283.443 219.911 283.365 220.279 283.365H329.431C329.799 283.365 330.162 283.443 330.496 283.595C330.831 283.747 331.129 283.967 331.372 284.243C331.614 284.519 331.794 284.843 331.901 285.193C332.007 285.544 332.038 285.913 331.99 286.276L324.016 345.984Z" stroke="#334155" stroke-width="1.35" stroke-linecap="round" stroke-linejoin="round"/>
<path d="M324.016 343.983H225.693V350.34H324.016V343.983Z" fill="#F1F5F9"/>
<path d="M324.016 343.983H225.693V350.34H324.016V343.983Z" stroke="#334155" stroke-width="1.35" stroke-linecap="round" stroke-linejoin="round"/>
<path d="M272.752 326.002C278.624 326.002 283.384 321.257 283.384 315.405C283.384 309.551 278.624 304.807 272.752 304.807C266.881 304.807 262.121 309.551 262.121 315.405C262.121 321.257 266.881 326.002 272.752 326.002Z" fill="#F1F5F9"/>
<path d="M399.909 95.0536H316.504C314.719 95.0536 313.007 95.7607 311.744 97.019C310.482 98.2773 309.773 99.9843 309.773 101.764V140.267C309.773 142.046 310.482 143.753 311.744 145.012C313.007 146.27 314.719 146.977 316.504 146.977H391.194L401.176 160.864C401.795 161.725 402.609 162.425 403.554 162.909C404.498 163.393 405.545 163.645 406.607 163.645V101.764C406.607 99.9893 405.902 98.288 404.647 97.0305C403.392 95.773 401.688 95.0627 399.909 95.0536ZM334.903 123.493C334.322 123.493 333.754 123.321 333.271 122.999C332.787 122.677 332.411 122.22 332.189 121.685C331.967 121.15 331.908 120.561 332.022 119.993C332.135 119.425 332.414 118.903 332.826 118.494C333.237 118.084 333.76 117.805 334.329 117.692C334.899 117.579 335.49 117.638 336.027 117.859C336.563 118.08 337.022 118.456 337.345 118.938C337.668 119.419 337.84 119.985 337.84 120.564C337.84 121.341 337.531 122.086 336.98 122.635C336.429 123.184 335.682 123.493 334.903 123.493ZM356.651 123.493C356.069 123.493 355.501 123.32 355.018 122.998C354.534 122.676 354.157 122.217 353.935 121.681C353.713 121.145 353.657 120.555 353.771 119.987C353.885 119.418 354.167 118.897 354.58 118.488C354.992 118.079 355.517 117.802 356.088 117.69C356.659 117.579 357.25 117.639 357.786 117.864C358.323 118.088 358.78 118.465 359.101 118.949C359.422 119.433 359.592 120.001 359.589 120.581C359.584 121.356 359.272 122.098 358.72 122.644C358.167 123.189 357.42 123.495 356.643 123.493H356.651ZM378.391 123.493C377.81 123.493 377.242 123.321 376.759 122.999C376.275 122.677 375.899 122.22 375.677 121.685C375.455 121.15 375.396 120.561 375.51 119.993C375.623 119.425 375.902 118.903 376.314 118.494C376.725 118.084 377.248 117.805 377.818 117.692C378.388 117.579 378.978 117.638 379.515 117.859C380.051 118.08 380.51 118.456 380.833 118.938C381.156 119.419 381.328 119.985 381.328 120.564C381.329 120.95 381.254 121.332 381.106 121.688C380.958 122.044 380.742 122.368 380.468 122.64C380.194 122.913 379.869 123.128 379.511 123.274C379.153 123.42 378.769 123.495 378.383 123.493H378.391Z" fill="#F97316"/>
<path d="M394.297 88.9426H310.925C309.139 88.9426 307.428 89.6497 306.165 90.908C304.903 92.1663 304.194 93.8733 304.194 95.6525V134.14C304.194 135.919 304.903 137.626 306.165 138.884C307.428 140.143 309.139 140.85 310.925 140.85H385.624L395.605 154.737C396.221 155.597 397.035 156.298 397.979 156.782C398.922 157.265 399.967 157.518 401.028 157.518V95.6525C401.028 93.8733 400.318 92.1663 399.056 90.908C397.794 89.6497 396.081 88.9426 394.297 88.9426ZM329.291 117.373C328.709 117.375 328.14 117.204 327.656 116.884C327.171 116.562 326.794 116.105 326.571 115.57C326.347 115.034 326.288 114.444 326.401 113.876C326.514 113.307 326.794 112.785 327.206 112.375C327.616 111.964 328.141 111.686 328.712 111.572C329.282 111.46 329.874 111.518 330.411 111.741C330.947 111.964 331.407 112.34 331.728 112.823C332.051 113.306 332.222 113.873 332.22 114.453C332.22 115.222 331.916 115.96 331.374 116.506C330.831 117.053 330.095 117.364 329.324 117.373H329.291ZM351.031 117.373C350.449 117.373 349.881 117.201 349.398 116.88C348.914 116.557 348.538 116.099 348.316 115.564C348.094 115.028 348.037 114.439 348.15 113.871C348.264 113.302 348.545 112.781 348.956 112.371C349.368 111.962 349.892 111.684 350.463 111.572C351.033 111.46 351.624 111.519 352.161 111.742C352.697 111.964 353.156 112.342 353.477 112.824C353.799 113.306 353.97 113.874 353.968 114.453C353.968 115.223 353.663 115.962 353.119 116.51C352.575 117.057 351.836 117.367 351.064 117.373H351.031ZM372.779 117.373C372.197 117.373 371.629 117.201 371.146 116.88C370.663 116.557 370.287 116.099 370.064 115.564C369.842 115.028 369.785 114.439 369.898 113.871C370.013 113.302 370.293 112.781 370.705 112.371C371.116 111.962 371.64 111.684 372.211 111.572C372.781 111.46 373.372 111.519 373.909 111.742C374.445 111.964 374.904 112.342 375.225 112.824C375.547 113.306 375.718 113.874 375.717 114.453C375.717 115.223 375.411 115.962 374.867 116.51C374.323 117.057 373.585 117.367 372.812 117.373H372.779Z" stroke="#334155" stroke-width="1.35" stroke-linecap="round" stroke-linejoin="round"/>
<path d="M524.522 106.98C524.522 107.56 524.35 108.126 524.027 108.607C523.704 109.089 523.246 109.464 522.708 109.686C522.172 109.907 521.581 109.965 521.012 109.852C520.441 109.74 519.918 109.461 519.508 109.051C519.096 108.642 518.816 108.12 518.704 107.551C518.59 106.984 518.648 106.395 518.871 105.86C519.093 105.325 519.47 104.867 519.953 104.546C520.436 104.224 521.003 104.052 521.584 104.052C521.97 104.051 522.353 104.126 522.71 104.273C523.067 104.42 523.391 104.635 523.664 104.908C523.937 105.179 524.153 105.503 524.301 105.858C524.448 106.214 524.523 106.596 524.522 106.98Z" fill="#F97316"/>
<path d="M546.27 106.98C546.27 107.56 546.098 108.126 545.775 108.607C545.452 109.089 544.994 109.464 544.457 109.686C543.92 109.907 543.329 109.965 542.76 109.852C542.19 109.74 541.666 109.461 541.256 109.051C540.844 108.642 540.564 108.12 540.452 107.551C540.338 106.984 540.397 106.395 540.619 105.86C540.841 105.325 541.217 104.867 541.701 104.546C542.184 104.224 542.752 104.052 543.333 104.052C543.718 104.051 544.101 104.126 544.458 104.273C544.815 104.42 545.14 104.635 545.412 104.908C545.685 105.179 545.902 105.503 546.049 105.858C546.196 106.214 546.271 106.596 546.27 106.98Z" fill="#F97316"/>
<path d="M568.018 106.98C568.018 107.56 567.846 108.126 567.523 108.607C567.2 109.089 566.741 109.464 566.205 109.686C565.668 109.907 565.077 109.965 564.507 109.852C563.938 109.74 563.414 109.461 563.004 109.051C562.592 108.642 562.313 108.12 562.2 107.551C562.086 106.984 562.144 106.395 562.367 105.86C562.589 105.325 562.965 104.867 563.449 104.546C563.932 104.224 564.5 104.052 565.081 104.052C565.467 104.051 565.849 104.126 566.206 104.273C566.563 104.42 566.887 104.635 567.16 104.908C567.433 105.179 567.65 105.503 567.797 105.858C567.944 106.214 568.019 106.596 568.018 106.98Z" fill="#F97316"/>
<path d="M524.522 126.413C524.524 126.993 524.353 127.56 524.031 128.042C523.709 128.525 523.251 128.902 522.714 129.124C522.178 129.347 521.587 129.406 521.017 129.294C520.446 129.182 519.922 128.904 519.51 128.495C519.099 128.085 518.818 127.564 518.704 126.995C518.59 126.427 518.648 125.838 518.87 125.302C519.092 124.766 519.468 124.309 519.952 123.986C520.435 123.665 521.003 123.493 521.584 123.493C522.362 123.493 523.108 123.8 523.659 124.347C524.209 124.894 524.52 125.638 524.522 126.413Z" fill="#F97316"/>
<path d="M546.27 126.413C546.272 126.993 546.101 127.56 545.779 128.042C545.457 128.525 544.999 128.902 544.462 129.124C543.926 129.347 543.335 129.406 542.765 129.294C542.195 129.182 541.67 128.904 541.258 128.495C540.847 128.085 540.566 127.564 540.452 126.995C540.338 126.427 540.396 125.838 540.618 125.302C540.84 124.766 541.216 124.309 541.7 123.986C542.183 123.665 542.751 123.493 543.333 123.493C544.11 123.493 544.857 123.8 545.407 124.347C545.957 124.894 546.268 125.638 546.27 126.413Z" fill="#F97316"/>
<path d="M568.018 126.413C568.02 126.993 567.849 127.56 567.527 128.042C567.205 128.525 566.747 128.902 566.21 129.124C565.674 129.347 565.083 129.406 564.513 129.294C563.943 129.182 563.418 128.904 563.006 128.495C562.595 128.085 562.314 127.564 562.2 126.995C562.086 126.427 562.144 125.838 562.366 125.302C562.588 124.766 562.964 124.309 563.448 123.986C563.931 123.665 564.499 123.493 565.081 123.493C565.858 123.493 566.605 123.8 567.155 124.347C567.706 124.894 568.016 125.638 568.018 126.413Z" fill="#F97316"/>
<path d="M524.522 145.853C524.522 146.432 524.35 146.998 524.027 147.48C523.704 147.961 523.246 148.337 522.708 148.559C522.172 148.78 521.581 148.838 521.012 148.725C520.441 148.613 519.918 148.334 519.508 147.924C519.096 147.514 518.816 146.993 518.704 146.424C518.59 145.857 518.648 145.268 518.871 144.733C519.093 144.197 519.47 143.74 519.953 143.419C520.436 143.096 521.003 142.925 521.584 142.925C521.97 142.924 522.353 142.999 522.71 143.146C523.067 143.292 523.391 143.508 523.664 143.781C523.937 144.052 524.153 144.376 524.301 144.731C524.448 145.087 524.523 145.469 524.522 145.853Z" fill="#F97316"/>
<path d="M546.27 145.853C546.27 146.432 546.098 146.998 545.775 147.48C545.452 147.961 544.994 148.337 544.457 148.559C543.92 148.78 543.329 148.838 542.76 148.725C542.19 148.613 541.666 148.334 541.256 147.924C540.844 147.514 540.564 146.993 540.452 146.424C540.338 145.857 540.397 145.268 540.619 144.733C540.841 144.197 541.217 143.74 541.701 143.419C542.184 143.096 542.752 142.925 543.333 142.925C543.718 142.924 544.101 142.999 544.458 143.146C544.815 143.292 545.14 143.508 545.412 143.781C545.685 144.052 545.902 144.376 546.049 144.731C546.196 145.087 546.271 145.469 546.27 145.853Z" fill="#F97316"/>
<path d="M568.018 145.853C568.018 146.432 567.846 146.998 567.523 147.48C567.2 147.961 566.741 148.337 566.205 148.559C565.668 148.78 565.077 148.838 564.507 148.725C563.938 148.613 563.414 148.334 563.004 147.924C562.592 147.514 562.313 146.993 562.2 146.424C562.086 145.857 562.144 145.268 562.367 144.733C562.589 144.197 562.965 143.74 563.449 143.419C563.932 143.096 564.5 142.925 565.081 142.925C565.467 142.924 565.849 142.999 566.206 143.146C566.563 143.292 566.887 143.508 567.16 143.781C567.433 144.052 567.65 144.376 567.797 144.731C567.944 145.087 568.019 145.469 568.018 145.853Z" fill="#F97316"/>
<path d="M422.702 52.7438C422.702 52.7438 392.577 13.1244 300.606 17.3406C208.635 21.5569 177.581 66.3275 229.84 76.6876C281.631 86.9493 314.011 62.341 267.346 52.145C220.682 41.9489 161.683 67.1478 137.606 106.98" stroke="#334155" stroke-width="1.69" stroke-linecap="round" stroke-linejoin="round" stroke-dasharray="13.55 13.55"/>
<path d="M264.96 119.358H218.378C217.492 119.358 216.643 119.71 216.016 120.334C215.389 120.959 215.037 121.805 215.037 122.689V146.961C215.037 147.844 215.389 148.691 216.016 149.316C216.643 149.94 217.492 150.291 218.378 150.291H254.098L263.429 161.086C263.532 161.243 263.684 161.36 263.861 161.419C264.039 161.477 264.231 161.474 264.407 161.409C264.582 161.344 264.73 161.221 264.826 161.061C264.922 160.901 264.961 160.713 264.935 160.528V150.291C265.822 150.291 266.671 149.94 267.298 149.316C267.924 148.691 268.276 147.844 268.276 146.961V122.689C268.276 121.809 267.927 120.966 267.306 120.343C266.686 119.719 265.842 119.365 264.96 119.358ZM241.681 143.36C237.131 143.36 229.52 130.047 234.062 127.225C238.341 124.559 241.681 129.62 241.681 129.62C241.681 129.62 245.03 124.559 249.309 127.225C253.819 130.047 246.207 143.36 241.657 143.36H241.681Z" fill="#F97316"/>
<path d="M260.475 122.689H213.943C213.056 122.689 212.206 123.039 211.578 123.664C210.95 124.288 210.596 125.135 210.594 126.019V150.291C210.594 151.176 210.947 152.026 211.575 152.652C212.202 153.278 213.055 153.63 213.943 153.63H249.655L258.986 164.424C259.088 164.581 259.24 164.698 259.418 164.757C259.596 164.816 259.787 164.812 259.964 164.748C260.139 164.683 260.287 164.56 260.383 164.4C260.479 164.24 260.517 164.051 260.492 163.867V153.63C260.931 153.63 261.367 153.543 261.772 153.375C262.178 153.207 262.547 152.961 262.857 152.651C263.168 152.341 263.413 151.973 263.581 151.568C263.748 151.163 263.833 150.729 263.833 150.291V126.019C263.833 125.58 263.745 125.146 263.577 124.741C263.408 124.336 263.16 123.968 262.848 123.658C262.537 123.349 262.166 123.104 261.759 122.937C261.352 122.771 260.916 122.686 260.475 122.689ZM237.197 146.69C232.655 146.69 225.043 133.385 229.577 130.555C233.856 127.889 237.197 132.959 237.197 132.959C237.197 132.959 240.546 127.889 244.825 130.555C249.326 133.385 241.747 146.69 237.197 146.69Z" stroke="#334155" stroke-width="1.35" stroke-linecap="round" stroke-linejoin="round"/>
<path d="M436.937 14.8224V16.7665L448.819 26.9625C449.093 27.1963 449.428 27.3469 449.785 27.3965C450.142 27.4461 450.506 27.3926 450.834 27.2424C451.16 27.0922 451.437 26.8515 451.633 26.5489C451.827 26.2463 451.93 25.8945 451.93 25.5352V4.10139C451.928 3.74281 451.823 3.3921 451.629 3.09073C451.434 2.78937 451.157 2.54992 450.829 2.40069C450.502 2.25146 450.139 2.19868 449.783 2.24858C449.426 2.29849 449.092 2.44899 448.819 2.68231L436.937 12.8783V14.8224Z" fill="#F97316"/>
<path d="M439.546 11.1722H434.23V18.4644H439.546V11.1722Z" fill="#334155"/>
<path d="M436.336 13.1244V15.0685L448.218 25.2563C448.492 25.4922 448.827 25.6449 449.184 25.6962C449.542 25.7476 449.907 25.6953 450.235 25.5458C450.564 25.3963 450.843 25.1557 451.038 24.8528C451.233 24.5499 451.337 24.1973 451.337 23.8372V2.46084C451.337 2.10073 451.233 1.74821 451.038 1.4453C450.843 1.14239 450.564 0.901834 450.235 0.752296C449.907 0.60276 449.542 0.550541 449.184 0.601861C448.827 0.653182 448.492 0.805877 448.218 1.04176L436.336 11.205V13.1244Z" stroke="#334155" stroke-width="1.35" stroke-linecap="round" stroke-linejoin="round"/>
<path d="M438.994 9.507H433.679V16.7993H438.994V9.507Z" stroke="#334155" stroke-width="1.35" stroke-linecap="round" stroke-linejoin="round"/>
<path d="M430.692 4.97087H413.189C410.277 4.97087 407.915 7.32494 407.915 10.2288V19.4159C407.915 22.3198 410.277 24.6739 413.189 24.6739H430.692C433.604 24.6739 435.966 22.3198 435.966 19.4159V10.2288C435.966 7.32494 433.604 4.97087 430.692 4.97087Z" fill="#F97316"/>
<path d="M425.59 14.8224C425.588 15.5424 425.373 16.2457 424.97 16.8436C424.568 17.4415 423.997 17.907 423.329 18.1813C422.661 18.4557 421.927 18.5267 421.219 18.3853C420.51 18.2438 419.86 17.8963 419.35 17.3866C418.84 16.8769 418.493 16.228 418.353 15.5218C418.212 14.8155 418.285 14.0836 418.562 13.4186C418.838 12.7536 419.307 12.1852 419.907 11.7854C420.508 11.3856 421.214 11.1722 421.936 11.1722C422.417 11.1722 422.893 11.2667 423.336 11.4502C423.78 11.6337 424.184 11.9028 424.523 12.2418C424.862 12.5809 425.131 12.9833 425.314 13.4261C425.497 13.869 425.591 14.3434 425.59 14.8224Z" fill="#F1F5F9"/>
<path d="M430.132 3.30571H412.63C409.717 3.30571 407.355 5.65978 407.355 8.56368V17.7508C407.355 20.6546 409.717 23.0088 412.63 23.0088H430.132C433.045 23.0088 435.407 20.6546 435.407 17.7508V8.56368C435.407 5.65978 433.045 3.30571 430.132 3.30571Z" stroke="#334155" stroke-width="1.35" stroke-linecap="round" stroke-linejoin="round"/>
<path d="M425.039 13.1244C425.04 13.8467 424.827 14.5533 424.426 15.1546C424.024 15.7559 423.453 16.2251 422.784 16.5026C422.115 16.7801 421.379 16.8536 420.668 16.7137C419.957 16.5738 419.303 16.2268 418.791 15.7167C418.278 15.2064 417.928 14.556 417.786 13.8477C417.644 13.1394 417.716 12.4051 417.993 11.7377C418.27 11.0702 418.74 10.4996 419.342 10.0982C419.944 9.69665 420.652 9.48239 421.377 9.48239C422.347 9.48239 423.277 9.86587 423.963 10.5486C424.649 11.2314 425.036 12.1577 425.039 13.1244Z" stroke="#334155" stroke-width="1.35" stroke-linecap="round" stroke-linejoin="round"/>
<path d="M185.859 124.731V260.848C185.856 262.503 185.196 264.09 184.022 265.259C182.849 266.43 181.256 267.088 179.597 267.09H43.0601C41.3993 267.09 39.8065 266.432 38.6322 265.262C37.4578 264.091 36.7982 262.503 36.7982 260.848V124.731C36.7982 123.912 36.9601 123.1 37.2748 122.343C37.5895 121.585 38.0507 120.897 38.6322 120.317C39.2137 119.737 39.904 119.278 40.6637 118.964C41.4234 118.651 42.2377 118.489 43.0601 118.489H179.597C180.419 118.489 181.233 118.651 181.993 118.964C182.752 119.278 183.443 119.737 184.025 120.317C184.606 120.897 185.067 121.585 185.382 122.343C185.697 123.1 185.859 123.912 185.859 124.731Z" stroke="#334155" stroke-width="1.35" stroke-linecap="round" stroke-linejoin="round"/>
<path d="M185.859 124.731V136.215H36.7982V124.731C36.7982 123.912 36.9601 123.1 37.2748 122.343C37.5895 121.585 38.0507 120.897 38.6322 120.317C39.2137 119.737 39.904 119.278 40.6637 118.964C41.4234 118.651 42.2377 118.489 43.0601 118.489H179.597C180.419 118.489 181.233 118.651 181.993 118.964C182.752 119.278 183.443 119.737 184.025 120.317C184.606 120.897 185.067 121.585 185.382 122.343C185.697 123.1 185.859 123.912 185.859 124.731Z" fill="#0F172A"/>
<path d="M144.584 127.627C144.584 128.207 144.411 128.773 144.089 129.254C143.765 129.737 143.306 130.111 142.769 130.333C142.232 130.554 141.641 130.612 141.071 130.499C140.5 130.385 139.977 130.105 139.566 129.695C139.156 129.285 138.877 128.762 138.764 128.193C138.652 127.624 138.711 127.035 138.935 126.501C139.158 125.966 139.537 125.509 140.021 125.188C140.504 124.867 141.074 124.697 141.655 124.698C142.04 124.698 142.422 124.774 142.778 124.922C143.133 125.069 143.457 125.285 143.729 125.556C144.002 125.829 144.217 126.152 144.364 126.507C144.51 126.862 144.585 127.243 144.584 127.627Z" fill="#F1F5F9"/>
<path d="M162.926 127.627C162.926 128.206 162.754 128.772 162.43 129.253C162.108 129.735 161.649 130.111 161.112 130.332C160.576 130.554 159.985 130.612 159.415 130.499C158.845 130.386 158.322 130.107 157.911 129.697C157.5 129.288 157.22 128.766 157.107 128.198C156.994 127.63 157.052 127.041 157.274 126.506C157.496 125.971 157.873 125.514 158.356 125.192C158.839 124.87 159.407 124.698 159.988 124.698C160.374 124.698 160.757 124.772 161.114 124.919C161.47 125.066 161.795 125.282 162.067 125.554C162.341 125.825 162.557 126.149 162.704 126.505C162.852 126.861 162.927 127.242 162.926 127.627Z" fill="#F1F5F9"/>
<path d="M181.308 127.627C181.308 128.206 181.136 128.772 180.813 129.253C180.49 129.735 180.032 130.111 179.495 130.332C178.958 130.554 178.367 130.612 177.798 130.499C177.228 130.386 176.704 130.107 176.294 129.697C175.882 129.288 175.603 128.766 175.49 128.198C175.376 127.63 175.435 127.041 175.657 126.506C175.879 125.971 176.256 125.514 176.739 125.192C177.222 124.87 177.79 124.698 178.371 124.698C178.757 124.698 179.139 124.772 179.496 124.919C179.853 125.066 180.178 125.282 180.45 125.554C180.723 125.825 180.94 126.149 181.087 126.505C181.234 126.861 181.309 127.242 181.308 127.627Z" fill="#F1F5F9"/>
<path d="M181.308 127.627C181.308 128.206 181.136 128.772 180.813 129.253C180.49 129.735 180.032 130.111 179.495 130.332C178.958 130.554 178.367 130.612 177.798 130.499C177.228 130.386 176.704 130.107 176.294 129.697C175.882 129.288 175.603 128.766 175.49 128.198C175.376 127.63 175.435 127.041 175.657 126.506C175.879 125.971 176.256 125.514 176.739 125.192C177.222 124.87 177.79 124.698 178.371 124.698C178.757 124.698 179.139 124.772 179.496 124.919C179.853 125.066 180.178 125.282 180.45 125.554C180.723 125.825 180.94 126.149 181.087 126.505C181.234 126.861 181.309 127.242 181.308 127.627Z" fill="#F97316"/>
<path d="M185.859 124.731V136.215H36.7982V124.731C36.7982 123.912 36.9601 123.1 37.2748 122.343C37.5895 121.585 38.0507 120.897 38.6322 120.317C39.2137 119.737 39.904 119.278 40.6637 118.964C41.4234 118.651 42.2377 118.489 43.0601 118.489H179.597C180.419 118.489 181.233 118.651 181.993 118.964C182.752 119.278 183.443 119.737 184.025 120.317C184.606 120.897 185.067 121.585 185.382 122.343C185.697 123.1 185.859 123.912 185.859 124.731Z" stroke="#334155" stroke-width="1.35" stroke-linecap="round" stroke-linejoin="round"/>
<path d="M125.445 77.4013C125.011 77.6785 124.56 77.9277 124.095 78.1477H109.975V71.4625H113.266L105.194 62.2836L97.13 71.4625H100.421V78.1477H85.4372C82.5548 74.953 81.0627 70.7475 81.2903 66.4563C81.5179 62.1652 83.4459 58.14 86.6509 55.2661C89.856 52.3923 94.0747 50.9052 98.3791 51.1322C102.683 51.3591 106.722 53.2813 109.605 56.476C110.861 55.3538 112.493 54.7395 114.18 54.7534C117.726 54.7534 120.606 57.3373 120.606 60.4954C124.194 59.995 127.666 61.3157 129.501 64.1292C130.002 64.9008 130.355 65.757 130.546 66.6557C131.377 70.4946 129.427 74.8584 125.445 77.4013Z" fill="#F97316"/>
<path d="M128.234 79.3453C127.8 79.6208 127.349 79.87 126.885 80.0918H112.731V73.4065H116.023L108.008 64.2276L99.936 73.4065H103.227V80.0918H88.2185C85.3887 76.8892 83.9413 72.7028 84.1898 68.4423C84.4391 64.1817 86.3638 60.1911 89.5474 57.3375C92.731 54.4839 96.9153 52.9978 101.192 53.202C105.468 53.4062 109.491 55.2843 112.386 58.4283C113.645 57.3041 115.279 56.6897 116.969 56.7057C120.516 56.7057 123.396 59.2814 123.396 62.4476C126.983 61.9473 130.456 63.2679 132.291 66.0815C132.777 66.8771 133.119 67.7516 133.303 68.6653C134.126 72.4386 132.217 76.8025 128.234 79.3453Z" stroke="#334155" stroke-width="1.35" stroke-linecap="round" stroke-linejoin="round"/>
<path d="M202.423 15.8067L205.492 22.6068L226.697 2.60849L202.423 15.8067Z" fill="#F97316"/>
<path d="M202.423 15.8067L205.492 22.6068L226.697 2.60849L202.423 15.8067Z" stroke="#334155" stroke-width="1.02" stroke-linecap="round" stroke-linejoin="round"/>
<path d="M203.558 15.8559L205.492 22.6068L202.423 15.8067L202.085 15.6345L203.575 15.2899L203.558 15.8559Z" fill="#334155"/>
<path d="M226.697 2.60849L216.667 16.4055L203.558 15.8559L202.423 15.8067L202.086 15.6345L195.527 12.2713L226.697 2.60849Z" fill="#F97316"/>
<path d="M226.697 2.60849L216.667 16.4055L203.558 15.8559L202.423 15.8067L202.086 15.6345L195.527 12.2713L226.697 2.60849Z" stroke="#334155" stroke-width="1.02" stroke-linecap="round" stroke-linejoin="round"/>
<path d="M226.697 2.60849L203.558 15.8559L202.423 15.8067L202.085 15.6345L226.697 2.60849Z" fill="#334155"/>
<path d="M181.399 172.463H182.32C182.94 172.463 183.535 172.708 183.973 173.146C184.411 173.582 184.657 174.175 184.657 174.793V190.665H181.366V172.463H181.399Z" fill="#F1F5F9"/>
<path d="M164.695 175.031L151.718 190.969H159.206C159.166 189.359 159.607 187.774 160.474 186.416L164.695 179.854V175.031Z" fill="#F1F5F9"/>
<path d="M181.399 172.463H182.32C182.94 172.463 183.535 172.708 183.973 173.146C184.411 173.582 184.657 174.175 184.657 174.793V190.665H181.366V172.463H181.399Z" stroke="#334155" stroke-width="1.35" stroke-linecap="round" stroke-linejoin="round"/>
<path d="M164.695 175.031L151.718 190.969H159.206C159.166 189.359 159.607 187.774 160.474 186.416L164.695 179.854V175.031Z" stroke="#334155" stroke-width="1.35" stroke-linecap="round" stroke-linejoin="round"/>
<path d="M177.136 167.96H168.71V190.665H177.136V167.96Z" fill="#0F172A"/>
<path d="M177.136 167.96H168.71V190.665H177.136V167.96Z" stroke="#334155" stroke-width="1.35" stroke-linecap="round" stroke-linejoin="round"/>
<path d="M169.714 165.36H163.189V190.665H169.714V165.36Z" fill="#F97316"/>
<path d="M169.714 165.36H163.189V190.665H169.714V165.36Z" stroke="#334155" stroke-width="1.35" stroke-linecap="round" stroke-linejoin="round"/>
<path d="M182.559 165.36H176.034V190.665H182.559V165.36Z" fill="#F97316"/>
<path d="M182.559 165.36H176.034V190.665H182.559V165.36Z" stroke="#334155" stroke-width="1.35" stroke-linecap="round" stroke-linejoin="round"/>
<path d="M185.859 189.968H135.697V192.773H185.859V189.968Z" fill="#F1F5F9"/>
<path d="M185.859 189.968H135.697V192.773H185.859V189.968Z" stroke="#334155" stroke-width="1.35" stroke-linecap="round" stroke-linejoin="round"/>
<path d="M67.7787 257.805V308.178H47.7092" stroke="#334155" stroke-width="1.35" stroke-linecap="round" stroke-linejoin="round"/>
<path d="M67.7787 285.12H47.7092" stroke="#334155" stroke-width="1.35" stroke-linecap="round" stroke-linejoin="round"/>
<path d="M29.45 288.18H0.559509" stroke="#334155" stroke-width="1.35" stroke-linecap="round" stroke-linejoin="round"/>
<path d="M31.861 280.978H21.4272" stroke="#334155" stroke-width="1.35" stroke-linecap="round" stroke-linejoin="round"/>
<path d="M29.45 311.336H0.559509" stroke="#334155" stroke-width="1.35" stroke-linecap="round" stroke-linejoin="round"/>
<path d="M31.861 304.134H21.4272" stroke="#334155" stroke-width="1.35" stroke-linecap="round" stroke-linejoin="round"/>
<path d="M50.0791 278.377H36.7982V291.616H50.0791V278.377Z" fill="#F97316"/>
<path d="M50.0791 301.558H36.7982V314.797H50.0791V301.558Z" fill="#F97316"/>
<path d="M48.1289 275.875H34.848V289.115H48.1289V275.875Z" stroke="#334155" stroke-width="1.35" stroke-linecap="round" stroke-linejoin="round"/>
<path d="M48.1289 299.065H34.848V312.304H48.1289V299.065Z" stroke="#334155" stroke-width="1.35" stroke-linecap="round" stroke-linejoin="round"/>
<path d="M387.623 190.255C387.623 190.255 378.901 165.269 378.893 162.653C378.893 159.084 383.945 156.952 387.023 158.65C391.499 161.111 398.362 191.854 398.362 191.854L387.623 190.255Z" fill="#F1F5F9"/>
<path d="M387.623 190.255C387.623 190.255 378.901 165.269 378.893 162.653C378.893 159.084 383.945 156.952 387.023 158.65C391.499 161.111 398.362 191.854 398.362 191.854L387.623 190.255Z" stroke="#334155" stroke-width="1.35" stroke-linecap="round" stroke-linejoin="round"/>
<path d="M406.607 198.983C395.819 207.858 382.431 208.826 376.786 208.826C374.672 198.072 373.174 189.525 373.174 189.525L399.662 183.783C399.662 183.783 402.476 189.82 406.607 198.983Z" fill="#F1F5F9"/>
<path d="M406.607 198.983C395.819 207.858 382.431 208.826 376.786 208.826C374.672 198.072 373.174 189.525 373.174 189.525L399.662 183.783C399.662 183.783 402.476 189.82 406.607 198.983Z" stroke="#334155" stroke-width="1.35" stroke-linecap="round" stroke-linejoin="round"/>
<path d="M375.083 182.856C375.433 181.67 376.075 180.59 376.952 179.716C377.829 178.842 378.912 178.201 380.102 177.852C384.217 176.655 388.026 184.456 388.932 188.754C389.837 193.052 389.129 196.752 385.113 196.858C381.098 196.965 380.004 192.158 379.197 189.353C378.391 186.547 375.083 182.856 375.083 182.856Z" fill="#F1F5F9"/>
<path d="M375.083 182.856C375.433 181.67 376.075 180.59 376.952 179.716C377.829 178.842 378.912 178.201 380.102 177.852C384.217 176.655 388.026 184.456 388.932 188.754C389.837 193.052 389.129 196.752 385.113 196.858C381.098 196.965 380.004 192.158 379.197 189.353C378.391 186.547 375.083 182.856 375.083 182.856Z" stroke="#334155" stroke-width="1.35" stroke-linecap="round" stroke-linejoin="round"/>
<path d="M472.419 217.16L432.971 253.564L430.667 256.459C427.573 259.626 421.13 264.219 409.898 263.957C393.153 263.563 385.887 249.102 381.641 231.548L389.631 225.346C393.977 216.605 400.595 209.186 408.795 203.863C431.728 188.459 462.347 188.344 462.347 188.344L472.419 217.16Z" fill="#0F172A"/>
<path d="M472.419 217.16L432.971 253.564L430.667 256.459C427.573 259.626 421.13 264.219 409.898 263.957C393.153 263.563 385.887 249.102 381.641 231.548L389.631 225.346C393.977 216.605 400.595 209.186 408.795 203.863C431.728 188.459 462.347 188.344 462.347 188.344L472.419 217.16Z" stroke="#334155" stroke-width="1.35" stroke-linecap="round" stroke-linejoin="round"/>
<path d="M430.667 256.468C427.573 259.634 421.13 264.227 409.898 263.965C393.153 263.571 385.887 249.11 381.641 231.556C381.559 231.22 381.485 230.891 381.403 230.563C381.073 229.147 380.744 227.706 380.415 226.24C380.234 225.42 380.061 224.6 379.88 223.78C379.732 223.123 379.592 222.459 379.444 221.795C379.296 221.13 379.14 220.359 378.992 219.637C378.695 218.259 378.407 216.873 378.128 215.536C378.037 215.101 377.955 214.666 377.864 214.232C377.864 214.043 377.79 213.854 377.749 213.666L377.576 212.845C377.469 212.32 377.371 211.804 377.264 211.287C377.189 210.918 377.115 210.557 377.05 210.196C376.984 209.835 376.877 209.318 376.786 208.892L376.564 207.751C376.507 207.464 376.449 207.185 376.4 206.931L376.358 206.726C376.309 206.488 376.268 206.25 376.219 206.012C376.223 205.996 376.223 205.98 376.219 205.963C376.153 205.635 376.095 205.323 376.037 205.003C375.98 204.684 375.922 204.437 375.873 204.183C375.824 203.929 375.749 203.568 375.692 203.264C381.633 203.617 391.803 202.305 403.71 192.683L403.932 193.175C404.039 193.413 404.155 193.659 404.261 193.905C404.368 194.151 404.443 194.307 404.541 194.512L406.607 199.073L408.795 203.995C415.37 218.612 424.191 239.037 430.667 256.468Z" fill="#0F172A"/>
<path d="M430.667 256.468C427.573 259.634 421.13 264.227 409.898 263.965C393.153 263.571 385.887 249.11 381.641 231.556C381.559 231.22 381.485 230.891 381.402 230.563C381.073 229.147 380.744 227.706 380.415 226.24C380.234 225.42 380.061 224.6 379.88 223.78C379.732 223.123 379.592 222.459 379.444 221.795C379.296 221.13 379.14 220.359 378.991 219.637C378.695 218.259 378.407 216.873 378.127 215.536C378.037 215.101 377.955 214.666 377.864 214.232C377.864 214.043 377.79 213.854 377.749 213.666L377.576 212.845C377.469 212.32 377.37 211.804 377.263 211.287C377.189 210.918 377.115 210.557 377.05 210.196C376.984 209.835 376.877 209.318 376.786 208.892C376.399 206.907 376.029 205.003 375.684 203.207C381.625 203.56 391.795 202.247 403.71 192.626C405.134 195.751 406.87 199.581 408.795 203.904C411.025 208.9 413.51 214.568 416.069 220.507" stroke="#334155" stroke-width="1.35" stroke-linecap="round" stroke-linejoin="round"/>
<path d="M406.607 198.983C395.819 207.858 382.431 208.826 376.786 208.826L376.564 207.686C376.515 207.399 376.457 207.12 376.4 206.866L376.358 206.66C376.309 206.423 376.268 206.185 376.219 205.947C376.223 205.93 376.223 205.914 376.219 205.898C376.153 205.569 376.095 205.258 376.037 204.938C375.98 204.618 375.922 204.372 375.873 204.118C375.824 203.863 375.749 203.502 375.692 203.199C381.633 203.552 391.803 202.239 403.71 192.617C403.792 192.781 403.858 192.945 403.941 193.109C404.023 193.274 404.163 193.593 404.27 193.84C404.377 194.086 404.451 194.241 404.55 194.447L406.607 198.983Z" fill="#F97316"/>
<path d="M406.607 198.983C395.819 207.858 382.431 208.826 376.786 208.826L376.564 207.686C376.515 207.399 376.457 207.12 376.4 206.866L376.358 206.66C376.309 206.423 376.268 206.185 376.219 205.947C376.223 205.93 376.223 205.914 376.219 205.898C376.153 205.569 376.095 205.258 376.037 204.938C375.98 204.618 375.922 204.372 375.873 204.118C375.824 203.863 375.749 203.502 375.692 203.199C381.633 203.552 391.803 202.239 403.71 192.617C403.792 192.781 403.858 192.945 403.941 193.109C404.023 193.274 404.163 193.593 404.27 193.84C404.377 194.086 404.451 194.241 404.55 194.447L406.607 198.983Z" stroke="#334155" stroke-width="1.35" stroke-linecap="round" stroke-linejoin="round"/>
<path d="M370.286 185.153C369.463 187.991 372.294 198.851 378.514 197.555C384.735 196.259 379.238 183.947 375.799 182.151C373.676 181.051 370.771 183.455 370.286 185.153Z" fill="#F1F5F9"/>
<path d="M370.286 185.153C369.463 187.991 372.294 198.851 378.514 197.555C384.735 196.259 379.238 183.947 375.799 182.151C373.676 181.051 370.771 183.455 370.286 185.153Z" stroke="#334155" stroke-width="1.35" stroke-linecap="round" stroke-linejoin="round"/>
<path d="M400.238 185.063C400.238 185.063 399.366 179.755 396.049 179.321C392.733 178.886 381.452 185.62 382.184 188.417C382.917 191.215 385.122 193.552 389.277 192.322C393.433 191.092 400.238 185.063 400.238 185.063Z" fill="#F1F5F9"/>
<path d="M400.238 185.063C400.238 185.063 399.366 179.755 396.049 179.321C392.733 178.886 381.452 185.62 382.184 188.417C382.917 191.215 385.122 193.552 389.277 192.322C391.31 191.715 393.976 189.96 396.173 188.319" stroke="#334155" stroke-width="1.35" stroke-linecap="round" stroke-linejoin="round"/>
<path d="M462.347 188.352C462.347 188.352 492.793 183.553 511.43 206.16C530.068 228.767 531.763 259.396 532.166 268.001H421.336C418.515 254.397 419.485 240.284 424.142 227.192C431.934 205.52 462.347 188.352 462.347 188.352Z" fill="#0F172A"/>
<path d="M462.347 188.352C462.347 188.352 492.793 183.553 511.43 206.16C530.068 228.767 531.763 259.396 532.166 268.001H421.336C418.515 254.397 419.485 240.284 424.142 227.192" stroke="#334155" stroke-width="1.35" stroke-linecap="round" stroke-linejoin="round"/>
<path d="M500.371 228.283C500.371 228.283 503.605 242.662 502.404 268.764" stroke="#334155" stroke-width="1.35" stroke-linecap="round" stroke-linejoin="round"/>
<path d="M472.419 176.893V191.994C472.419 191.994 469.679 196.866 462.734 196.866C455.789 196.866 453.04 191.986 453.04 191.986V176.893H472.419Z" fill="#F97316"/>
<path d="M472.419 176.893V191.994C472.419 191.994 469.679 196.866 462.734 196.866C455.789 196.866 453.04 191.986 453.04 191.986V176.893H472.419Z" stroke="#334155" stroke-width="1.35" stroke-linecap="round" stroke-linejoin="round"/>
<path d="M470.938 175.367V188.155C470.938 188.155 468.617 192.256 462.709 192.256C456.801 192.256 454.48 188.155 454.48 188.155V175.367H470.938Z" fill="#F1F5F9"/>
<path d="M470.938 175.367V188.155C470.938 188.155 468.617 192.256 462.709 192.256C456.801 192.256 454.48 188.155 454.48 188.155V175.367H470.938Z" stroke="#334155" stroke-width="1.35" stroke-linecap="round" stroke-linejoin="round"/>
<path d="M497.828 200.418C491.007 208.153 476.154 208.424 470.6 197.621C465.046 186.818 470.979 161.619 470.979 161.619L449.535 161.75C449.535 161.75 461.17 177.483 454.571 193.487C449.543 205.676 438.542 209.818 431.457 205.209C429.006 203.538 427.178 201.107 426.256 198.294C421.443 184.964 434.148 178.96 438.83 174.03C443.512 169.1 441.109 158.691 440.837 149.889C440.566 141.088 446.211 124.748 461.244 124.018C475.093 123.353 485.65 136.322 484.186 154.958C482.721 173.595 488.728 176.696 492.472 179.624C496.216 182.553 504.609 192.691 497.828 200.418Z" fill="#0F172A"/>
<path d="M442.541 166.959C443.528 176.499 433.177 181.363 429.968 186.014C426.758 190.665 426.215 198.318 431.416 205.2C428.965 203.529 427.137 201.099 426.215 198.285C421.402 184.956 434.106 178.952 438.789 174.022C443.471 169.092 441.068 158.682 440.796 149.881C440.525 141.079 446.17 124.739 461.203 124.009C440.475 128.267 441.545 157.419 442.541 166.959Z" fill="#F1F5F9"/>
<path d="M461.203 124.009C446.17 124.731 440.533 141.079 440.796 149.881C441.06 158.682 443.471 169.084 438.789 174.022C434.106 178.96 421.402 184.956 426.24 198.285C431.078 211.615 447.947 209.49 454.554 193.487C461.162 177.483 449.519 161.75 449.519 161.75L470.962 161.619C470.962 161.619 465.038 186.818 470.592 197.621C476.146 208.424 490.991 208.153 497.812 200.418C504.633 192.683 496.166 182.553 492.455 179.616C488.744 176.679 482.696 173.62 484.169 154.95C485.642 136.281 475.052 123.345 461.203 124.009Z" stroke="#334155" stroke-width="1.35" stroke-linecap="round" stroke-linejoin="round"/>
<path d="M478.845 160.044C478.845 171.684 471.44 180.51 462.388 180.51C453.337 180.51 445.882 171.684 445.882 160.044C445.882 148.404 453.287 137.175 462.388 137.175C471.489 137.175 478.845 148.413 478.845 160.044Z" fill="#F1F5F9"/>
<path d="M478.845 160.044C478.845 171.684 471.44 180.51 462.388 180.51C453.337 180.51 445.882 171.684 445.882 160.044C445.882 148.404 453.287 137.175 462.388 137.175C471.489 137.175 478.845 148.413 478.845 160.044Z" stroke="#334155" stroke-width="1.35" stroke-linecap="round" stroke-linejoin="round"/>
<path d="M456.167 159.396H454.349V156.583C454.349 156.343 454.444 156.113 454.614 155.944C454.783 155.775 455.014 155.68 455.254 155.68C455.495 155.68 455.725 155.775 455.897 155.944C456.068 156.113 456.165 156.342 456.167 156.583V159.396Z" fill="#0F172A"/>
<path d="M466.469 151.882C466.552 152.908 471.925 153.523 472.081 152.358C472.238 151.193 466.346 150.439 466.469 151.882Z" fill="#0F172A"/>
<path d="M469.029 159.396H467.218V156.583C467.218 156.343 467.314 156.113 467.483 155.944C467.654 155.775 467.883 155.68 468.123 155.68C468.364 155.68 468.594 155.775 468.764 155.944C468.933 156.113 469.029 156.343 469.029 156.583V159.396Z" fill="#0F172A"/>
<path d="M466.947 159.396C467.291 159.169 467.694 159.048 468.107 159.048C468.52 159.048 468.923 159.169 469.267 159.396" stroke="#334155" stroke-width="1.35" stroke-linecap="round" stroke-linejoin="round"/>
<path d="M456.875 151.661C456.875 152.694 451.567 153.744 451.321 152.58C451.074 151.415 456.883 150.217 456.875 151.661Z" stroke="#334155" stroke-width="0.43" stroke-miterlimit="10"/>
<path d="M456.414 159.396C456.072 159.168 455.669 159.047 455.258 159.047C454.847 159.047 454.444 159.168 454.102 159.396" stroke="#334155" stroke-width="1.35" stroke-linecap="round" stroke-linejoin="round"/>
<path d="M460.956 164.687C460.956 164.687 460.578 166.615 462.454 166.418C464.33 166.221 464.379 164.203 463.03 164.162" stroke="#334155" stroke-width="1.35" stroke-linecap="round" stroke-linejoin="round"/>
<path d="M467.753 138.537C467.753 138.537 461.269 156.87 444.812 158.847C444.812 158.847 440.698 131.613 461.203 130.137C481.709 128.66 480.261 158.641 480.261 158.641C480.261 158.641 474.377 157.993 467.753 138.537Z" fill="#0F172A"/>
<path d="M467.753 138.537C467.753 138.537 461.269 156.87 444.812 158.847C444.812 158.847 440.698 131.613 461.203 130.137C481.709 128.66 480.261 158.641 480.261 158.641C480.261 158.641 474.377 157.993 467.753 138.537Z" stroke="#334155" stroke-width="1.35" stroke-linecap="round" stroke-linejoin="round"/>
<path d="M477.257 158.65C477.257 158.65 478.73 156.189 482.943 157.419C487.156 158.65 485.955 169.42 477.257 167.082V158.65Z" fill="#F1F5F9"/>
<path d="M478.36 157.657C479.232 157.14 480.705 156.738 482.959 157.419C487.074 158.658 486.02 168.944 477.841 167.263" stroke="#334155" stroke-width="1.35" stroke-linecap="round" stroke-linejoin="round"/>
<path d="M479.726 161.053C480.033 160.824 480.391 160.673 480.769 160.609C481.148 160.545 481.535 160.572 481.901 160.687C482.267 160.803 482.6 161.003 482.872 161.272C483.145 161.541 483.35 161.871 483.47 162.234" stroke="#334155" stroke-width="1.35" stroke-linecap="round" stroke-linejoin="round"/>
<path d="M481.199 163.678V160.569" stroke="#334155" stroke-width="1.35" stroke-linecap="round" stroke-linejoin="round"/>
<path d="M467.449 173.431C466.912 173.574 466.357 173.632 465.803 173.603C464.034 173.529 462.265 172.676 462.372 171.348C462.544 169.215 466.412 169.887 467.44 168.288C468.469 166.688 470.551 166.352 470.929 168.288C470.925 168.318 470.925 168.349 470.929 168.378C471.275 170.298 470.444 172.562 467.449 173.431Z" fill="#0F172A"/>
<path d="M467.449 173.431C466.912 173.574 466.357 173.632 465.803 173.603C464.034 173.529 462.265 172.676 462.372 171.348C462.544 169.215 466.412 169.887 467.44 168.288C468.469 166.688 470.551 166.352 470.929 168.288C470.925 168.318 470.925 168.349 470.929 168.378C471.275 170.298 470.444 172.562 467.449 173.431Z" stroke="#334155" stroke-width="1.35" stroke-linecap="round" stroke-linejoin="round"/>
<path d="M467.449 173.431C466.912 173.574 466.358 173.632 465.803 173.603C465.54 172.086 465.4 170.15 466.947 169.682C468.156 169.313 468.831 167.533 470.946 168.378C471.275 170.298 470.444 172.562 467.449 173.431Z" fill="#F1F5F9"/>
<path d="M447.231 158.65C447.231 158.65 445.766 156.189 441.545 157.419C437.324 158.65 438.542 169.42 447.231 167.082V158.65Z" fill="#F1F5F9"/>
<path d="M446.96 158.65C446.96 158.65 445.487 156.189 441.274 157.419C437.061 158.65 438.262 169.42 446.96 167.082" stroke="#334155" stroke-width="1.35" stroke-linecap="round" stroke-linejoin="round"/>
<path d="M444.779 161.053C444.471 160.824 444.113 160.673 443.736 160.609C443.357 160.545 442.969 160.572 442.603 160.687C442.238 160.803 441.905 161.003 441.632 161.272C441.359 161.541 441.154 161.871 441.035 162.234" stroke="#334155" stroke-width="1.35" stroke-linecap="round" stroke-linejoin="round"/>
<path d="M443.314 163.678V160.569" stroke="#334155" stroke-width="1.35" stroke-linecap="round" stroke-linejoin="round"/>
<path d="M116.846 220.367V264.843H44.9774V222.295C44.986 219.877 45.9554 217.559 47.6733 215.852C49.3912 214.144 51.7178 213.184 54.144 213.182H107.918C109.953 213.181 111.932 213.856 113.539 215.101C115.147 216.345 116.294 218.089 116.796 220.056C116.846 220.154 116.846 220.261 116.846 220.367Z" fill="#F97316"/>
<path d="M116.846 220.367V264.843H44.7058V220.367C44.708 217.947 45.6736 215.626 47.3906 213.914C49.1077 212.202 51.436 211.24 53.8642 211.238H107.638C110.014 211.236 112.297 212.155 114.006 213.8C115.714 215.446 116.715 217.689 116.796 220.056C116.846 220.154 116.846 220.261 116.846 220.367Z" stroke="#334155" stroke-width="1.35" stroke-linecap="round" stroke-linejoin="round"/>
<path d="M78.8626 264.843H44.7058V245.46C51.84 226.265 67.0381 223.771 67.0381 223.771C68.7693 227.674 70.9805 231.347 73.621 234.706C77.8258 239.906 75.7111 245.64 77.8505 256.574C78.4454 259.293 78.7843 262.061 78.8626 264.843Z" fill="#334155"/>
<path d="M80.7551 213.182V222.705C75.1762 220.367 72.576 216.66 71.424 213.182H80.7551Z" fill="#334155"/>
<path d="M70.922 238.84V264.843H62.6112C61.2649 264.852 59.943 264.486 58.7944 263.785C57.6458 263.086 56.7162 262.079 56.1106 260.881C55.5092 259.649 55.1755 258.304 55.1314 256.935V238.84H70.922Z" fill="#F1F5F9"/>
<path d="M70.922 264.843H62.6112C61.2649 264.852 59.943 264.486 58.7944 263.785C57.6458 263.086 56.7162 262.079 56.1106 260.881C55.5092 259.649 55.1755 258.304 55.1314 256.935V245.017" stroke="#334155" stroke-width="1.35" stroke-linecap="round" stroke-linejoin="round"/>
<path d="M71.8025 264.711H62.5371C61.3296 264.712 60.1409 264.413 59.079 263.84C58.017 263.267 57.1155 262.438 56.4562 261.43L56.4068 261.365C55.6771 260.23 55.2834 258.915 55.2713 257.567V240.341L67.178 240.439H71.2923L71.8025 264.711Z" fill="#F1F5F9"/>
<path d="M171.385 255.04C171.385 255.04 174.676 253.843 176.667 254.778C178.659 255.713 181.851 260.028 181.851 260.971C181.851 261.914 179.58 262.907 177.638 261.307C175.696 259.708 171.385 255.04 171.385 255.04Z" fill="#F1F5F9"/>
<path d="M171.385 255.04C171.385 255.04 174.676 253.843 176.667 254.778C178.659 255.713 181.851 260.028 181.851 260.971C181.851 261.914 179.58 262.907 177.638 261.307C175.696 259.708 171.385 255.04 171.385 255.04Z" stroke="#334155" stroke-width="1.35" stroke-linecap="round" stroke-linejoin="round"/>
<path d="M165.501 255.172C165.501 255.172 167.032 252.506 169.616 252.908C172.199 253.31 177.844 258.707 178.519 259.683C179.646 261.373 177.194 263.899 174.619 263.563C172.043 263.227 166.069 257.821 166.069 257.821L165.501 255.172Z" fill="#F1F5F9"/>
<path d="M165.501 255.172C165.501 255.172 167.032 252.506 169.616 252.908C172.199 253.31 177.844 258.707 178.519 259.683C179.646 261.373 177.194 263.899 174.619 263.563C172.043 263.227 166.069 257.821 166.069 257.821L165.501 255.172Z" stroke="#334155" stroke-width="1.35" stroke-linecap="round" stroke-linejoin="round"/>
<path d="M134.726 264.843H71.1853L70.7657 254.573C63.9442 245.509 53.1071 244.729 53.1071 244.729C52.9673 242.064 56.3163 230.063 66.0836 222.582C71.1606 218.702 79.4057 217.308 86.1449 216.84C89.8601 216.6 93.5876 216.6 97.3028 216.84C101.141 217.231 104.932 218 108.617 219.137C141.309 229.399 134.726 264.843 134.726 264.843Z" fill="#F97316"/>
<path d="M134.726 264.843H71.1853L70.7657 254.573C63.9442 245.509 53.1071 244.729 53.1071 244.729C52.9673 242.064 56.3163 230.063 66.0836 222.582C71.1606 218.702 79.4057 217.308 86.1449 216.84C89.8601 216.6 93.5876 216.6 97.3028 216.84C101.141 217.231 104.932 218 108.617 219.137C141.309 229.399 134.726 264.843 134.726 264.843Z" stroke="#334155" stroke-width="1.35" stroke-linecap="round" stroke-linejoin="round"/>
<path d="M116.846 256.574C116.846 256.574 115.644 263.374 115.644 264.843H151.85L162.926 259.371C162.926 259.371 168.538 263.112 170.545 263.645C170.545 263.645 174.66 264.309 173.754 260.044C173.754 260.044 163.79 252.243 161.782 251.439C159.774 250.635 153.224 252.711 149.011 255.237L134.298 250.775L116.846 256.574Z" fill="#F1F5F9"/>
<path d="M116.846 256.574C116.846 256.574 115.644 263.374 115.644 264.843H151.85L162.926 259.371C162.926 259.371 168.538 263.112 170.545 263.645C170.545 263.645 174.66 264.309 173.754 260.044C173.754 260.044 163.79 252.243 161.782 251.439C159.774 250.635 153.224 252.711 149.011 255.237L134.298 250.775L116.846 256.574Z" stroke="#334155" stroke-width="1.35" stroke-linecap="round" stroke-linejoin="round"/>
<path d="M115.603 245.107L116.805 256.574" stroke="#334155" stroke-width="1.35" stroke-linecap="round" stroke-linejoin="round"/>
<path d="M108.617 219.137V223.755C108.629 225.816 107.828 227.798 106.387 229.275C105.213 230.477 103.803 231.425 102.247 232.062C100.69 232.698 99.0185 233.009 97.3357 232.975C92.5878 232.975 89.7983 231.228 88.1938 229.497C86.8821 228.05 86.163 226.165 86.1778 224.214V216.832C89.893 216.592 93.6205 216.592 97.3357 216.832C101.164 217.227 104.942 217.999 108.617 219.137Z" fill="#334155"/>
<path d="M145.16 261.578C145.16 261.578 149.579 265.425 153.389 266.245C157.199 267.066 161.14 264.359 160.885 262.439C160.63 260.52 150.245 258.445 150.245 258.445L145.16 261.578Z" fill="#F1F5F9"/>
<path d="M146.781 262.849C148.427 264.047 151.019 265.737 153.364 266.245C157.182 267.066 161.115 264.359 160.86 262.439C160.704 261.299 156.952 260.093 153.948 259.314" stroke="#334155" stroke-width="1.35" stroke-linecap="round" stroke-linejoin="round"/>
<path d="M104.569 211.238V222.762C104.566 223.374 104.415 223.975 104.128 224.515C103.842 225.054 103.428 225.517 102.923 225.863C100.734 227.381 96.48 229.202 91.2302 225.806C90.6945 225.46 90.2534 224.986 89.9473 224.428C89.642 223.869 89.4799 223.243 89.4775 222.607V211.238H104.569Z" fill="#F1F5F9"/>
<path d="M104.569 211.238V222.762C104.566 223.374 104.415 223.975 104.128 224.515C103.842 225.054 103.428 225.517 102.923 225.863C100.734 227.381 96.48 229.202 91.2302 225.806C90.6945 225.46 90.2534 224.986 89.9473 224.428C89.642 223.869 89.4799 223.243 89.4775 222.607V211.238H104.569Z" stroke="#334155" stroke-width="1.02" stroke-linecap="round" stroke-linejoin="round"/>
<path d="M109.744 199.746C109.744 209.064 103.828 216.151 96.5293 216.151C89.2306 216.151 83.306 209.072 83.306 199.746C83.306 190.419 89.2306 181.429 96.5293 181.429C103.828 181.429 109.744 190.427 109.744 199.746Z" fill="#F1F5F9"/>
<path d="M109.744 199.746C109.744 209.064 103.828 216.151 96.5293 216.151C89.2306 216.151 83.306 209.072 83.306 199.746C83.306 190.419 89.2306 181.429 96.5293 181.429C103.828 181.429 109.744 190.427 109.744 199.746Z" stroke="#334155" stroke-width="1.35" stroke-linecap="round" stroke-linejoin="round"/>
<path d="M100.389 197.047C101.014 197.58 104.421 194.906 103.836 194.151C103.252 193.397 99.4998 196.3 100.389 197.047Z" fill="#334155"/>
<path d="M101.87 201.452H100.389V199.196C100.389 199.002 100.466 198.817 100.603 198.68C100.741 198.543 100.927 198.466 101.121 198.466C101.216 198.466 101.312 198.485 101.4 198.522C101.489 198.559 101.569 198.613 101.636 198.68C101.703 198.748 101.756 198.828 101.792 198.917C101.829 199.006 101.846 199.101 101.845 199.196L101.87 201.452Z" fill="#334155"/>
<path d="M91.5757 201.452H90.1193V199.196C90.1193 199.002 90.1966 198.817 90.334 198.68C90.4715 198.543 90.6574 198.466 90.8516 198.466C90.9471 198.466 91.0425 198.485 91.1306 198.522C91.2194 198.559 91.2993 198.613 91.3667 198.68C91.4342 198.748 91.4869 198.828 91.5231 198.917C91.5593 199.006 91.5766 199.101 91.5757 199.196V201.452Z" fill="#334155"/>
<path d="M100.216 201.452C100.489 201.266 100.812 201.168 101.141 201.168C101.471 201.168 101.794 201.266 102.067 201.452" stroke="#334155" stroke-width="1.02" stroke-linecap="round" stroke-linejoin="round"/>
<path d="M91.7156 196.907C91.1314 197.49 87.5273 195.095 88.0539 194.291C88.5805 193.487 92.5467 196.095 91.7156 196.907Z" fill="#334155"/>
<path d="M91.7732 201.452C91.5001 201.266 91.1775 201.168 90.8475 201.168C90.5176 201.168 90.195 201.266 89.9218 201.452" stroke="#334155" stroke-width="1.02" stroke-linecap="round" stroke-linejoin="round"/>
<path d="M95.4514 203.429C95.4514 203.429 95.1469 204.971 96.6528 204.815C98.1586 204.659 98.1915 203.043 97.1136 203.01" stroke="#334155" stroke-width="1.02" stroke-linecap="round" stroke-linejoin="round"/>
<path d="M112.937 196.391C115.694 197.769 114.896 204.733 109.349 204.232" stroke="#334155" stroke-width="1.35" stroke-linecap="round" stroke-linejoin="round"/>
<path d="M109.901 200.763C110.078 200.566 110.301 200.415 110.55 200.322C110.799 200.229 111.067 200.198 111.33 200.231C111.594 200.265 111.845 200.361 112.064 200.512C112.282 200.663 112.46 200.864 112.583 201.099" stroke="#334155" stroke-width="1.35" stroke-linecap="round" stroke-linejoin="round"/>
<path d="M91.403 206.021C92.0431 206.889 92.8833 207.592 93.8526 208.071C94.8219 208.549 95.8925 208.788 96.9737 208.769C96.9737 208.769 94.3652 211.82 91.7732 210.114C90.1358 209.039 91.403 206.021 91.403 206.021Z" fill="#334155"/>
<path d="M91.403 206.021C92.0431 206.889 92.8833 207.592 93.8526 208.071C94.8219 208.549 95.8925 208.788 96.9737 208.769C96.9737 208.769 94.3652 211.82 91.7732 210.114C90.1358 209.039 91.403 206.021 91.403 206.021Z" stroke="#334155" stroke-width="1.35" stroke-linecap="round" stroke-linejoin="round"/>
<path d="M107.927 202.85C110.353 200.432 110.353 196.51 107.927 194.092C105.501 191.673 101.567 191.673 99.1411 194.092C96.7153 196.51 96.7153 200.432 99.1411 202.85C101.567 205.268 105.501 205.268 107.927 202.85Z" stroke="#334155" stroke-width="1.35" stroke-linecap="round" stroke-linejoin="round"/>
<path d="M95.6464 199.468C96.1969 196.092 93.897 192.911 90.5101 192.363C87.1233 191.815 83.9322 194.108 83.3825 197.483C82.8321 200.859 85.1319 204.04 88.5188 204.589C91.9057 205.137 95.0967 202.845 95.6464 199.468Z" stroke="#334155" stroke-width="1.35" stroke-linecap="round" stroke-linejoin="round"/>
<path d="M91.7897 220.835C91.1232 226.167 87.1076 239.906 81.6192 251.907C76.1307 263.908 71.8601 264.711 71.8601 264.711H62.5371C61.3296 264.712 60.1409 264.413 59.079 263.84C58.017 263.267 57.1155 262.438 56.4562 261.43L56.4068 261.365C55.6771 260.23 55.2834 258.914 55.2713 257.567V256.238C58.8425 251.357 63.2036 245.615 67.178 240.448C73.2836 232.483 78.4759 225.88 78.4759 225.88C78.4759 225.88 78.8791 219.547 78.4759 218.497C78.0727 217.447 74.3616 211.836 73.621 210.237C72.8804 208.637 72.2551 199.967 73.1273 198.162C73.2062 197.929 73.3343 197.714 73.503 197.535C73.6716 197.354 73.877 197.212 74.1053 197.117C74.3335 197.022 74.5794 196.977 74.8266 196.985C75.0737 196.993 75.3164 197.053 75.5383 197.162L78.2784 201.968C78.2784 201.968 81.1584 198.433 82.3927 196.768C83.627 195.103 86.0708 195.3 86.6057 198.162C87.1406 201.025 84.8695 202.895 84.96 203.83C85.0505 204.766 85.2233 206.767 88.2514 210.163C91.2795 213.559 92.4562 215.503 91.7897 220.835Z" fill="#F1F5F9"/>
<path d="M58.4969 251.825C61.3028 248.068 64.3392 244.081 67.178 240.39C73.2836 232.425 78.4759 225.822 78.4759 225.822C78.4759 225.822 78.8791 219.49 78.4759 218.44C78.0727 217.39 74.3616 211.779 73.621 210.179C72.8804 208.58 72.2551 199.91 73.1273 198.105C73.2062 197.871 73.3343 197.657 73.503 197.477C73.6716 197.297 73.877 197.154 74.1053 197.06C74.3335 196.965 74.5794 196.92 74.8266 196.928C75.0737 196.935 75.3164 196.995 75.5383 197.104L78.2784 201.911C78.2784 201.911 81.1584 198.376 82.3927 196.71C83.627 195.045 86.0708 195.242 86.6057 198.105C87.1406 200.968 84.8695 202.838 84.96 203.773C85.0505 204.708 85.2233 206.71 88.2514 210.106C91.2795 213.502 92.4644 215.511 91.7979 220.843C91.1314 226.175 87.1159 239.914 81.6274 251.915C76.139 263.916 71.8683 264.72 71.8683 264.72H62.5371C61.3296 264.72 60.1409 264.421 59.079 263.848C58.017 263.275 57.1155 262.447 56.4562 261.439L56.4068 261.373C55.6756 260.237 55.2818 258.917 55.2713 257.567V256.238" stroke="#334155" stroke-width="1.35" stroke-linecap="round" stroke-linejoin="round"/>
<path d="M110.617 199.869L109.917 197.268C104.157 193.864 103.195 190.165 103.195 190.165C103.195 190.165 100.38 195.464 96.7762 195.464C93.1721 195.464 92.8594 192.773 92.8594 192.773C85.6347 197.949 77.76 197.219 75.8921 192.675C75.545 191.78 75.4153 190.816 75.5136 189.861C76.1143 182.963 82.7383 182.265 82.7383 182.265C82.7383 182.265 80.3931 179.673 80.2039 177.04C80.0805 175.4 80.821 173.71 83.5365 172.66C90.4731 169.994 97.3111 174.645 97.4839 174.76C97.4345 174.596 96.5541 171.544 99.1872 170.962C101.82 170.38 104.61 177.04 104.61 177.04C104.61 177.04 106.914 173.759 108.222 174.161C109.531 174.563 107.013 177.565 107.013 177.565C111.826 176.86 114.139 178.566 115.044 187.564C115.949 196.563 110.617 199.869 110.617 199.869Z" fill="#334155"/>
<path d="M97.4756 174.76C85.4372 171.266 80.1956 177.04 80.1956 177.04C80.0722 175.4 80.8128 173.71 83.5282 172.66C90.4649 169.994 97.3028 174.645 97.4756 174.76Z" fill="#F1F5F9"/>
<path d="M75.8921 192.675C75.545 191.78 75.4153 190.816 75.5136 189.861C76.1143 182.963 82.7383 182.265 82.7383 182.265L83.3143 182.561C75.3655 184.767 75.8921 192.675 75.8921 192.675Z" fill="#F1F5F9"/>
<path d="M110.617 199.869C110.617 199.869 115.932 196.587 115.035 187.564C114.138 178.541 111.818 176.901 107.004 177.565C107.004 177.565 109.514 174.563 108.214 174.161C106.914 173.759 104.602 177.04 104.602 177.04C104.602 177.04 101.886 170.363 99.1789 170.962C96.4717 171.561 97.4756 174.76 97.4756 174.76C97.4756 174.76 90.5554 169.961 83.5282 172.66C76.501 175.359 82.7053 182.265 82.7053 182.265C82.7053 182.265 76.0813 182.963 75.4806 189.861C74.88 196.76 84.3099 198.884 92.8347 192.773C92.8347 192.773 93.1392 195.464 96.7515 195.464C100.364 195.464 103.17 190.165 103.17 190.165C103.17 190.165 104.174 193.864 109.893 197.268L110.617 199.869Z" stroke="#334155" stroke-width="1.35" stroke-linecap="round" stroke-linejoin="round"/>
<path d="M77.6201 209.031C77.6201 209.031 75.4807 205.963 75.2091 203.831C74.9376 201.698 75.1268 195.414 75.7275 194.118C76.2542 192.986 78.1961 191.978 79.5785 193.298C79.7623 193.488 79.9053 193.713 79.9987 193.96C80.0921 194.207 80.1339 194.47 80.1216 194.734C80.0558 196.842 79.85 203.543 80.1216 204.577C80.4664 205.442 81.0341 206.199 81.7673 206.775L77.6201 209.031Z" fill="#F1F5F9"/>
<path d="M77.6201 209.031C77.6201 209.031 75.4807 205.963 75.2091 203.831C74.9376 201.698 75.1268 195.414 75.7275 194.118C76.2542 192.986 78.1961 191.978 79.5785 193.298C79.7623 193.488 79.9053 193.713 79.9987 193.96C80.0921 194.207 80.1339 194.47 80.1216 194.734C80.0558 196.842 79.85 203.543 80.1216 204.577C80.4664 205.442 81.0341 206.199 81.7673 206.775" stroke="#334155" stroke-width="1.35" stroke-linecap="round" stroke-linejoin="round"/>
<path d="M71.8025 264.711H62.5371C61.3296 264.712 60.1409 264.413 59.079 263.84C58.017 263.267 57.1155 262.438 56.4562 261.43L56.4068 261.365C55.6771 260.23 55.2834 258.915 55.2713 257.567V245.017" stroke="#334155" stroke-width="1.35" stroke-linecap="round" stroke-linejoin="round"/>
<path d="M569.754 250.775H432.815C429.619 250.775 427.03 253.356 427.03 256.541V326.921C427.03 330.106 429.619 332.688 432.815 332.688H569.754C572.949 332.688 575.539 330.106 575.539 326.921V256.541C575.539 253.356 572.949 250.775 569.754 250.775Z" fill="#F97316"/>
<path d="M563.073 329.07H426.125C424.597 329.07 423.132 328.465 422.052 327.389C420.972 326.312 420.365 324.851 420.365 323.328V252.924C420.365 251.401 420.972 249.941 422.052 248.864C423.132 247.787 424.597 247.182 426.125 247.182H563.073C564.6 247.182 566.066 247.787 567.146 248.864C568.226 249.941 568.833 251.401 568.833 252.924V323.312C568.835 324.067 568.687 324.816 568.399 325.514C568.11 326.212 567.687 326.848 567.152 327.383C566.617 327.918 565.981 328.342 565.281 328.631C564.581 328.921 563.831 329.07 563.073 329.07Z" stroke="#334155" stroke-width="1.35" stroke-linecap="round" stroke-linejoin="round"/>
<path d="M457.253 273.226H545.439" stroke="#F1F5F9" stroke-width="1.35" stroke-linecap="round" stroke-linejoin="round"/>
<path d="M457.253 293.618H545.439" stroke="#F1F5F9" stroke-width="1.35" stroke-linecap="round" stroke-linejoin="round"/>
<path d="M457.253 314.002H545.439" stroke="#F1F5F9" stroke-width="1.35" stroke-linecap="round" stroke-linejoin="round"/>
</g>
<defs>
<clipPath id="clip0_632_1003">
<rect width="576" height="356" fill="white"/>
</clipPath>
</defs>
</svg>
