<svg xmlns="http://www.w3.org/2000/svg" viewBox="0 0 4096 4096"><defs><style>.cls-1{fill:#ea580c;}.cls-2{fill:#f59e0b;}.cls-3{fill:#f97316;}</style></defs><g id="Layer_2" data-name="Layer 2"><g id="Square"><g id="Logo"><path class="cls-1" d="M1722.09,1523.38l-885.53,506a8,8,0,0,1-8.77-.55L327,1653.21a8,8,0,0,1-1.18-11.71L1335.19,505.91a8,8,0,0,1,13.47,2.51l376.95,1005.2A8,8,0,0,1,1722.09,1523.38Z" transform="translate(-85.36)"/><path class="cls-2" d="M836.69,2025l505-757.46a8,8,0,0,0,.77-7.41L840.41,5a8,8,0,0,0-15.07.62l-503.69,1637a8,8,0,0,0,2.85,8.75l500.73,375.55A8,8,0,0,0,836.69,2025Z" transform="translate(-85.36)"/></g><path class="cls-3" d="M85.36,2684.16V2487.93h64.25q19.08,0,33.19,7.26a51.93,51.93,0,0,1,21.78,20.56q7.65,13.3,7.66,31.32,0,17.74-7.8,31.18a52.79,52.79,0,0,1-21.77,20.7q-14,7.26-33.06,7.25H114.39v78Zm29-104h35.22q15,0,24-9t9-24.06q0-15.33-9-24.19t-24-8.87H114.39Z" transform="translate(-85.36)"/><path class="cls-3" d="M281.05,2684.16V2487.93H342.6q18.56,0,32.26,7.13a52.4,52.4,0,0,1,21.37,20q7.65,12.9,7.66,30.38,0,19.62-10.08,34a53.69,53.69,0,0,1-27.29,20.29l40.06,84.41H373.51l-35.75-80.64H310.08v80.64Zm29-106.18H342.6q14.52,0,23.12-8.74t8.6-23.25q0-15-8.6-23.65t-23.12-8.6H310.08Z" transform="translate(-85.36)"/><path class="cls-3" d="M534.79,2686.85q-18.28,0-31.58-6.86a47.55,47.55,0,0,1-20.43-19.89q-7.12-13-7.13-30.51V2542.5q0-17.74,7.13-30.64a47.71,47.71,0,0,1,20.43-19.76q13.31-6.85,31.58-6.86t31.58,6.86a47.71,47.71,0,0,1,20.43,19.76q7.13,12.9,7.13,30.37v87.36q0,17.47-7.13,30.51A47.55,47.55,0,0,1,566.37,2680Q553.07,2686.85,534.79,2686.85Zm0-25.81q14.78,0,22.45-8.2t7.66-23.25V2542.5q0-15.33-7.66-23.39t-22.45-8.06q-14.52,0-22.31,8.06t-7.8,23.39v87.09q0,15.06,7.8,23.25T534.79,2661Z" transform="translate(-85.36)"/><path class="cls-3" d="M667.58,2684.16V2487.93h35.75l19.62,62.9q3,8.88,5.1,17.07t3,12.23q1.08-4,3.09-12.23t4.71-17.07l18.81-62.9h35.75v196.23H766V2618q0-12.63.67-28.09t2-31.18q1.35-15.72,2.69-30.1t2.42-25.14l-29,95.43h-28l-29.57-95.43q1.34,10.49,2.68,24.33t2.42,29.43q1.08,15.6,1.89,31.32T695,2618v66.13Z" transform="translate(-85.36)"/><path class="cls-3" d="M870.79,2684.16V2487.93H986.1v25.81H899.28v55.64h77.41v25.54H899.28v63.43H986.1v25.81Z" transform="translate(-85.36)"/><path class="cls-3" d="M1107.33,2684.16V2514.54h-52.42v-26.88h133.86v26.88h-52.41v169.62Z" transform="translate(-85.36)"/><path class="cls-3" d="M1259.73,2684.16V2487.93h29v81.18h57.53v-81.18h29v196.23h-29V2596h-57.53v88.17Z" transform="translate(-85.36)"/><path class="cls-3" d="M1457.84,2684.16V2487.93h115.31v25.81h-86.82v55.64h77.41v25.54h-77.41v63.43h86.82v25.81Z" transform="translate(-85.36)"/><path class="cls-3" d="M1708.89,2686.85q-28.22,0-43.54-15.46T1650,2629.32V2487.93h29v141.39q0,14.79,7.39,23.39t22.44,8.6q14.79,0,22.31-8.6t7.53-23.39V2487.93h29v141.39q0,26.61-15.32,42.07T1708.89,2686.85Z" transform="translate(-85.36)"/><path class="cls-3" d="M1905.38,2686.85q-19.89,0-34.13-6.59a50.54,50.54,0,0,1-22-18.82q-7.8-12.22-7.79-29.16h28.76q0,13.44,9.41,21.1t26.07,7.66q15.58,0,24.46-7.53t8.87-20.69a30.88,30.88,0,0,0-6-19.09q-6-8.05-17.33-11l-24.73-7.26q-21.51-6.18-33.2-21.1T1846,2538.74q0-16.14,7.26-28.23a49,49,0,0,1,20.69-18.81q13.44-6.72,31.72-6.72,26.88,0,43.14,14.51t16.54,39h-29q0-12.9-8.19-20.3t-23-7.39q-14.25,0-22.31,6.86t-8.06,19.21a30.94,30.94,0,0,0,6,19.09q6,8.07,17.33,11.29l25,7.53q21.51,5.91,33.07,21t11.55,36q0,16.4-7.79,28.9a52.07,52.07,0,0,1-21.77,19.35Q1924.2,2686.85,1905.38,2686.85Z" transform="translate(-85.36)"/></g></g></svg>
