<svg width="32" height="32" viewBox="0 0 32 32" fill="none" xmlns="http://www.w3.org/2000/svg">
<path d="M15.73 19.79V27.02C15.73 27.2972 15.6199 27.563 15.4239 27.7589C15.228 27.9549 14.9622 28.065 14.685 28.065C14.4079 28.065 14.1421 27.9549 13.9461 27.7589C13.7501 27.563 13.64 27.2972 13.64 27.02V19.8C13.931 20.0125 14.2798 20.1311 14.64 20.14C15.0326 20.1512 15.4173 20.0277 15.73 19.79ZM24.63 17.7C24.3648 17.7 24.1104 17.8054 23.9229 17.9929C23.7354 18.1804 23.63 18.4348 23.63 18.7V19.96C23.63 20.2372 23.7401 20.503 23.9361 20.6989C24.132 20.8949 24.3978 21.005 24.675 21.005C24.9522 21.005 25.218 20.8949 25.4139 20.6989C25.6099 20.503 25.72 20.2372 25.72 19.96V18.75C25.7278 18.6066 25.7046 18.4632 25.652 18.3296C25.5994 18.196 25.5187 18.0752 25.4152 17.9756C25.3118 17.876 25.1881 17.7998 25.0527 17.7522C24.9172 17.7047 24.773 17.6869 24.63 17.7ZM11.37 22.53C11.0102 22.5192 10.6618 22.4008 10.37 22.19V29.44C10.37 29.7185 10.4806 29.9856 10.6775 30.1825C10.8744 30.3794 11.1415 30.49 11.42 30.49C11.6985 30.49 11.9656 30.3794 12.1625 30.1825C12.3594 29.9856 12.47 29.7185 12.47 29.44V22.24C12.1435 22.4511 11.7582 22.5527 11.37 22.53ZM21.37 15.53C21.2345 15.5232 21.0991 15.5441 20.9719 15.5913C20.8448 15.6385 20.7286 15.7111 20.6303 15.8046C20.5321 15.8982 20.454 16.0107 20.4006 16.1354C20.3473 16.2601 20.3198 16.3944 20.32 16.53V22.1C20.32 22.3785 20.4306 22.6456 20.6275 22.8425C20.8245 23.0394 21.0915 23.15 21.37 23.15C21.6485 23.15 21.9156 23.0394 22.1125 22.8425C22.3094 22.6456 22.42 22.3785 22.42 22.1V16.6C22.428 16.4557 22.4046 16.3114 22.3514 16.177C22.2982 16.0426 22.2166 15.9213 22.112 15.8215C22.0074 15.7217 21.8825 15.6457 21.7458 15.5989C21.6091 15.552 21.4638 15.5353 21.32 15.55L21.37 15.53ZM18.05 17.67C17.6733 17.6674 17.3067 17.5487 17 17.33V24.6C17 24.8785 17.1106 25.1456 17.3075 25.3425C17.5045 25.5394 17.7715 25.65 18.05 25.65C18.3285 25.65 18.5955 25.5394 18.7925 25.3425C18.9894 25.1456 19.1 24.8785 19.1 24.6V17.34C18.7828 17.5763 18.3955 17.6995 18 17.69L18.05 17.67ZM9.1 23.24V2.93C9.09737 2.68243 8.99717 2.44591 8.82117 2.27178C8.64517 2.09765 8.40758 1.99999 8.16 2H7.94C7.69242 1.99999 7.45483 2.09765 7.27883 2.27178C7.10283 2.44591 7.00263 2.68243 7 2.93V23.24C7 23.4893 7.09904 23.7284 7.27532 23.9047C7.4516 24.081 7.6907 24.18 7.94 24.18H8.16C8.40931 24.18 8.6484 24.081 8.82468 23.9047C9.00097 23.7284 9.1 23.4893 9.1 23.24ZM11.48 21.76H11.26C11.0107 21.76 10.7716 21.661 10.5953 21.4847C10.419 21.3084 10.32 21.0693 10.32 20.82V5.35C10.3226 5.10244 10.4228 4.8659 10.5988 4.69178C10.7748 4.51765 11.0124 4.41999 11.26 4.42H11.48C11.7276 4.41999 11.9652 4.51765 12.1412 4.69178C12.3172 4.8659 12.4174 5.10244 12.42 5.35V20.84C12.42 21.0893 12.321 21.3284 12.1447 21.5047C11.9684 21.681 11.7293 21.78 11.48 21.78V21.76ZM14.79 19.38H14.56C14.3134 19.38 14.0768 19.282 13.9024 19.1076C13.728 18.9332 13.63 18.6967 13.63 18.45V7.75C13.6287 7.62703 13.6518 7.50502 13.6979 7.39103C13.744 7.27704 13.8123 7.17334 13.8988 7.08592C13.9853 6.9985 14.0883 6.9291 14.2018 6.88174C14.3153 6.83438 14.437 6.80999 14.56 6.81H14.79C15.0376 6.81264 15.2741 6.91283 15.4482 7.08883C15.6224 7.26483 15.72 7.50242 15.72 7.75V18.45C15.72 18.6967 15.622 18.9332 15.4476 19.1076C15.2732 19.282 15.0367 19.38 14.79 19.38ZM18.1 16.93H17.89C17.6424 16.93 17.4048 16.8324 17.2288 16.6582C17.0528 16.4841 16.9526 16.2476 16.95 16V10.24C16.9418 10.1116 16.96 9.9829 17.0036 9.8618C17.0471 9.7408 17.1151 9.6299 17.2032 9.5362C17.2913 9.4424 17.3977 9.3678 17.5159 9.3168C17.634 9.2659 17.7613 9.2397 17.89 9.24H18.11C18.3593 9.24 18.5984 9.339 18.7747 9.5153C18.951 9.6916 19.05 9.9307 19.05 10.18V15.98C19.0513 16.1043 19.028 16.2276 18.9813 16.3428C18.9347 16.458 18.8657 16.5628 18.7782 16.6512C18.6908 16.7395 18.5868 16.8096 18.472 16.8575C18.3573 16.9054 18.2343 16.93 18.11 16.93H18.1ZM21.42 14.78H21.2C20.9507 14.78 20.7116 14.681 20.5353 14.5047C20.359 14.3284 20.26 14.0893 20.26 13.84V12.35C20.2626 12.1024 20.3628 11.8659 20.5388 11.6918C20.7148 11.5176 20.9524 11.42 21.2 11.42H21.42C21.6676 11.42 21.9052 11.5176 22.0812 11.6918C22.2572 11.8659 22.3574 12.1024 22.36 12.35V13.84C22.36 14.0876 22.2624 14.3252 22.0882 14.5012C21.9141 14.6772 21.6776 14.7774 21.43 14.78H21.42Z" fill="#111827"/>
</svg>
